<?xml version="1.0" encoding="UTF-8" standalone="no"?>
<!DOCTYPE svg PUBLIC "-//W3C//DTD SVG 1.1//EN" "http://www.w3.org/Graphics/SVG/1.1/DTD/svg11.dtd">
<svg xmlns="http://www.w3.org/2000/svg" version="1.1" viewBox="0.00 0.00 1024.00 1024.00">
<g stroke-width="2.00" fill="none" stroke-linecap="butt">
<path stroke="#282f63" vector-effect="non-scaling-stroke" d="
  M 726.23 531.76
  Q 768.32 472.77 775.00 401.03
  Q 776.03 389.94 775.97 376.40
  Q 775.91 361.70 774.98 351.73
  Q 767.44 271.39 718.46 210.21
  Q 702.30 190.02 682.30 173.51
  C 657.61 153.13 628.31 136.38 597.98 126.80
  Q 584.92 122.68 578.67 121.09
  Q 531.88 109.24 483.50 114.04
  C 453.67 117.00 422.69 125.61 395.54 138.47
  C 356.07 157.16 321.13 187.37 295.94 222.66
  C 255.64 279.12 240.00 349.24 250.42 418.06
  C 259.43 477.57 290.96 534.89 336.03 574.34
  Q 350.29 586.82 362.54 595.21
  Q 404.25 623.76 454.41 635.52
  Q 471.50 639.52 499.43 641.59
  Q 510.35 642.40 523.56 641.53
  Q 537.91 640.59 547.62 639.36
  Q 598.21 632.97 642.35 607.60
  Q 692.80 578.61 726.23 531.76"
/>
<path stroke="#282f63" vector-effect="non-scaling-stroke" d="
  M 352.20 761.42
  Q 351.92 760.75 351.92 759.75
  Q 351.97 727.40 352.00 703.25
  C 352.00 699.01 352.51 696.14 347.77 695.76
  Q 335.64 694.76 328.00 696.06
  C 324.40 696.67 325.19 702.93 325.21 705.04
  Q 326.13 796.02 325.09 849.24
  Q 325.00 854.00 325.72 857.29
  A 2.14 2.14 0.0 0 0 327.81 858.97
  L 350.32 858.97
  A 1.66 1.66 0.0 0 0 351.98 857.31
  L 351.98 801.76
  A 2.54 2.52 67.6 0 1 352.72 799.97
  L 365.75 786.94
  A 1.14 1.13 -41.3 0 1 367.46 787.05
  Q 386.56 812.41 417.63 853.13
  C 418.78 854.63 420.27 857.02 422.04 858.46
  A 4.65 4.65 0.0 0 0 424.91 859.52
  Q 435.43 859.73 448.01 859.08
  Q 449.55 859.00 450.66 858.48
  C 454.64 856.63 448.40 848.28 446.88 846.37
  Q 423.33 816.77 394.88 780.12
  Q 390.23 774.12 385.63 767.31
  A 1.05 1.05 0.0 0 1 385.74 766.00
  Q 392.23 759.14 419.40 730.05
  C 428.62 720.18 437.96 710.86 446.09 701.36
  Q 447.28 699.97 447.83 698.41
  C 448.47 696.60 447.08 695.19 445.50 695.14
  Q 438.19 694.87 420.64 695.08
  C 417.30 695.12 415.22 696.26 413.06 698.57
  Q 389.96 723.26 376.29 737.78
  Q 363.01 751.88 353.59 761.69
  A 0.84 0.84 0.0 0 1 352.20 761.42"
/>
<path stroke="#282f63" vector-effect="non-scaling-stroke" d="
  M 201.23 720.25
  Q 204.52 720.02 210.00 720.00
  Q 237.28 719.91 242.26 720.02
  Q 244.85 720.08 244.93 717.48
  Q 245.22 708.06 244.89 697.64
  A 1.71 1.70 0.4 0 0 243.26 696.00
  Q 228.56 695.34 215.50 695.42
  Q 209.47 695.45 147.25 695.29
  Q 136.90 695.26 129.70 695.57
  A 1.57 1.55 -85.2 0 0 128.24 696.82
  Q 128.11 697.48 128.10 699.51
  Q 128.02 709.17 128.11 717.44
  Q 128.13 720.04 131.47 720.06
  Q 141.90 720.10 172.58 720.12
  A 1.43 1.42 -90.0 0 1 174.00 721.55
  L 174.00 857.75
  A 0.43 0.39 -66.5 0 0 174.09 858.01
  Q 174.86 858.95 177.04 858.99
  Q 188.24 859.21 198.20 858.89
  Q 200.39 858.82 200.35 856.52
  Q 199.90 825.87 200.13 808.72
  Q 200.41 787.50 200.25 764.79
  Q 200.20 757.02 200.70 720.81
  A 0.57 0.57 0.0 0 1 201.23 720.25"
/>
<path stroke="#282f63" vector-effect="non-scaling-stroke" d="
  M 293.01 698.89
  A 3.29 3.29 0.0 0 0 289.72 695.60
  L 269.22 695.60
  A 3.29 3.29 0.0 0 0 265.93 698.89
  L 265.93 855.69
  A 3.29 3.29 0.0 0 0 269.22 858.98
  L 289.72 858.98
  A 3.29 3.29 0.0 0 0 293.01 855.69
  L 293.01 698.89"
/>
<path stroke="#282f63" vector-effect="non-scaling-stroke" d="
  M 775.77 716.84
  A 14.73 14.73 0.0 0 0 761.04 702.11
  A 14.73 14.73 0.0 0 0 746.31 716.84
  A 14.73 14.73 0.0 0 0 761.04 731.57
  A 14.73 14.73 0.0 0 0 775.77 716.84"
/>
<path stroke="#282f63" vector-effect="non-scaling-stroke" d="
  M 901.55 857.65
  Q 901.86 856.59 901.87 854.77
  Q 902.10 790.71 902.08 789.75
  Q 901.78 778.77 901.42 774.52
  C 899.92 756.90 889.20 743.13 872.52 739.33
  Q 849.32 734.04 829.98 748.89
  Q 825.65 752.22 822.83 755.57
  A 0.98 0.98 0.0 0 1 821.19 755.36
  Q 821.03 755.03 821.03 754.73
  Q 820.83 747.91 819.80 744.18
  Q 819.12 741.72 816.74 742.07
  Q 810.21 743.04 803.77 742.17
  Q 802.41 741.99 800.70 742.45
  A 2.14 2.13 -7.6 0 0 799.12 744.51
  L 799.12 857.04
  A 1.90 1.90 0.0 0 0 801.02 858.94
  L 820.97 858.94
  A 1.91 1.90 -86.8 0 0 822.86 857.24
  Q 823.02 855.76 823.01 853.75
  Q 822.90 817.32 822.95 797.75
  C 822.99 785.19 823.76 774.15 835.27 766.77
  Q 847.68 758.82 861.65 761.91
  C 875.13 764.89 879.35 777.79 879.31 789.76
  Q 879.15 840.72 879.14 851.50
  Q 879.14 855.57 879.41 857.40
  A 1.82 1.82 0.0 0 0 881.21 858.95
  L 899.82 858.95
  A 1.80 1.79 7.9 0 0 901.55 857.65"
/>
<path stroke="#282f63" vector-effect="non-scaling-stroke" d="
  M 579.37 772.91
  C 569.96 752.01 549.51 739.22 526.49 738.78
  C 500.87 738.28 479.09 750.81 468.90 774.57
  C 461.99 790.68 462.57 809.70 469.49 825.61
  C 476.29 841.21 487.12 852.11 502.79 858.20
  Q 513.44 862.35 526.03 862.17
  Q 555.81 861.75 574.49 837.24
  Q 578.24 832.33 579.08 829.58
  Q 579.92 826.85 577.41 825.85
  Q 566.84 821.64 562.99 820.52
  C 559.99 819.65 558.60 819.28 556.75 821.92
  C 551.55 829.32 544.67 834.98 536.14 837.90
  C 525.91 841.40 513.95 839.50 504.88 832.54
  C 481.67 814.73 483.10 777.99 509.84 764.41
  Q 513.69 762.46 518.36 761.86
  C 528.14 760.62 536.68 761.80 544.87 767.70
  Q 549.39 770.95 555.37 778.93
  C 556.79 780.81 558.42 782.35 560.63 781.65
  Q 567.87 779.37 578.34 775.40
  A 1.86 1.85 67.5 0 0 579.37 772.91"
/>
<path stroke="#282f63" vector-effect="non-scaling-stroke" d="
  M 721.3154 798.7162
  A 63.17 62.03 -1.6 0 0 656.4380 738.4742
  A 63.17 62.03 -1.6 0 0 595.0246 802.2438
  A 63.17 62.03 -1.6 0 0 659.9020 862.4858
  A 63.17 62.03 -1.6 0 0 721.3154 798.7162"
/>
<path stroke="#282f63" vector-effect="non-scaling-stroke" d="
  M 773.01 745.96
  A 3.02 3.02 0.0 0 0 769.99 742.94
  L 752.05 742.94
  A 3.02 3.02 0.0 0 0 749.03 745.96
  L 749.03 855.66
  A 3.02 3.02 0.0 0 0 752.05 858.68
  L 769.99 858.68
  A 3.02 3.02 0.0 0 0 773.01 855.66
  L 773.01 745.96"
/>
<path stroke="#282f63" vector-effect="non-scaling-stroke" d="
  M 295.18 258.55
  Q 283.87 280.14 277.88 298.37
  C 259.51 354.23 261.04 415.87 284.08 470.44
  Q 308.64 528.60 357.57 567.93
  Q 414.17 613.43 485.85 620.95
  C 498.36 622.27 512.35 622.38 524.57 621.83
  Q 574.10 619.61 619.47 597.96
  Q 639.57 588.37 660.03 572.80
  Q 686.76 552.46 704.53 529.81
  Q 709.02 524.09 714.58 515.88
  Q 722.31 504.48 724.03 501.54
  Q 735.67 481.69 742.59 462.88
  Q 760.35 414.56 757.61 363.28
  Q 755.39 321.74 739.23 281.69
  Q 737.41 277.20 734.79 272.15
  C 730.71 264.28 727.17 256.42 722.55 248.91
  C 703.56 218.03 677.54 191.95 647.64 171.96
  C 620.32 153.69 588.97 142.61 556.52 136.44
  C 538.15 132.96 517.95 131.81 500.01 132.52
  C 476.53 133.45 454.26 137.94 431.67 145.38
  Q 389.89 159.14 355.81 187.02
  Q 339.61 200.27 327.24 213.72
  Q 321.08 220.41 310.01 235.29
  Q 301.08 247.28 295.18 258.55"
/>
<path stroke="#282f63" vector-effect="non-scaling-stroke" d="
  M 631.18 182.19
  A 11.38 11.38 0.0 0 0 619.80 170.81
  L 403.68 170.81
  A 11.38 11.38 0.0 0 0 392.30 182.19
  L 392.30 184.49
  A 11.38 11.38 0.0 0 0 403.68 195.87
  L 619.80 195.87
  A 11.38 11.38 0.0 0 0 631.18 184.49
  L 631.18 182.19"
/>
<path stroke="#282f63" vector-effect="non-scaling-stroke" d="
  M 423.38 201.94
  L 409.65 201.94
  A 0.51 0.50 -1.1 0 0 409.14 202.46
  C 409.35 211.83 408.67 225.44 409.88 235.52
  C 413.35 264.45 428.40 291.16 448.78 311.92
  Q 455.13 318.39 463.85 326.36
  C 474.53 336.13 487.41 352.79 479.67 368.20
  C 475.80 375.89 469.21 381.91 462.11 387.36
  Q 445.00 400.49 433.55 413.29
  Q 422.46 425.69 414.63 442.68
  Q 402.68 468.62 403.03 495.23
  Q 403.26 512.90 402.96 543.35
  A 0.67 0.67 0.0 0 0 403.63 544.02
  L 415.00 544.02
  A 0.66 0.66 0.0 0 0 415.66 543.43
  Q 416.02 539.75 416.02 535.75
  Q 416.01 523.75 415.68 504.50
  Q 415.44 490.52 416.83 480.03
  C 419.99 456.32 430.55 433.79 447.41 416.81
  Q 455.92 408.24 465.70 400.94
  Q 478.43 391.44 486.12 381.64
  C 501.72 361.78 493.26 337.74 477.22 321.27
  Q 472.08 315.99 461.15 304.96
  Q 455.08 298.83 445.89 287.20
  Q 429.29 266.20 425.12 240.25
  Q 424.06 233.61 423.89 221.47
  Q 423.74 211.09 424.06 202.64
  A 0.68 0.67 1.2 0 0 423.38 201.94"
/>
<path stroke="#282f63" vector-effect="non-scaling-stroke" d="
  M 600.71 201.95
  A 0.73 0.72 89.6 0 0 599.99 202.69
  Q 600.19 215.85 599.78 228.25
  C 599.09 248.64 592.54 267.36 580.57 283.76
  C 571.67 295.97 561.45 306.30 549.71 318.07
  C 544.82 322.98 539.44 329.22 536.42 334.16
  C 528.37 347.32 526.13 362.60 534.49 376.33
  Q 539.71 384.89 550.25 393.69
  Q 564.17 405.31 565.08 406.08
  C 587.67 425.09 601.81 450.48 606.20 479.54
  C 607.67 489.30 607.63 499.88 607.65 510.25
  Q 607.65 510.68 607.62 543.43
  A 0.59 0.59 0.0 0 0 608.21 544.02
  L 619.35 544.02
  A 0.76 0.76 0.0 0 0 620.11 543.27
  Q 620.14 513.32 619.89 492.26
  C 619.48 456.23 603.02 423.43 576.32 399.18
  Q 568.91 392.45 561.23 386.66
  C 555.90 382.64 550.70 377.66 547.22 373.02
  Q 539.05 362.10 543.70 348.94
  C 548.74 334.72 558.98 327.19 572.11 314.63
  Q 583.83 303.41 594.16 287.90
  Q 605.31 271.15 610.95 250.84
  C 615.23 235.46 615.26 219.30 614.85 202.92
  A 0.99 0.99 0.0 0 0 613.86 201.95
  L 600.71 201.95"
/>
<path stroke="#282f63" vector-effect="non-scaling-stroke" d="
  M 590.05 235.21
  L 433.46 235.21
  A 0.46 0.45 -2.8 0 0 433.00 235.71
  C 434.92 255.39 443.49 272.86 456.42 287.83
  Q 465.73 298.60 486.98 320.04
  C 500.11 333.30 506.29 349.47 506.88 367.77
  Q 507.24 378.82 507.00 390.53
  A 1.24 1.24 0.0 0 0 508.24 391.79
  L 514.70 391.79
  A 1.19 1.18 89.8 0 0 515.88 390.59
  Q 515.76 379.29 515.98 367.91
  C 516.10 362.09 517.06 357.51 518.14 352.37
  C 520.52 340.98 526.78 330.74 535.26 322.01
  Q 556.75 299.91 566.25 289.25
  C 579.67 274.18 588.74 256.26 590.90 236.16
  A 0.86 0.85 3.3 0 0 590.05 235.21"
/>
<path stroke="#282f63" vector-effect="non-scaling-stroke" d="
  M 554.37 412.10
  Q 554.10 411.79 552.69 410.82
  C 524.05 390.95 485.76 393.16 460.14 416.92
  Q 456.22 420.55 448.35 430.62
  A 1.68 1.67 -57.2 0 0 448.89 433.14
  L 452.84 435.21
  A 2.15 2.15 0.0 0 0 455.59 434.54
  C 466.64 418.80 485.39 407.73 504.70 406.76
  C 515.97 406.19 525.92 407.27 536.44 411.87
  Q 541.68 414.15 542.44 414.68
  A 1.11 1.10 44.7 0 0 543.69 414.68
  Q 547.69 411.99 553.55 413.45
  A 0.83 0.82 -13.9 0 0 554.37 412.10"
/>
<path stroke="#282f63" vector-effect="non-scaling-stroke" d="
  M 489.74 469.78
  Q 493.00 460.71 501.50 457.08
  C 504.46 455.81 507.81 455.82 511.07 455.38
  Q 512.19 455.23 513.20 452.96
  A 0.70 0.70 0.0 0 0 512.95 452.09
  C 512.32 451.67 511.60 451.69 511.06 450.93
  Q 508.74 447.64 508.15 446.59
  Q 503.19 437.74 495.46 423.38
  A 1.60 1.60 0.0 0 1 496.37 421.10
  C 509.18 416.89 525.38 420.03 536.62 426.26
  A 2.58 2.58 0.0 0 0 540.41 424.45
  L 540.90 421.62
  A 4.09 4.08 -72.4 0 0 538.63 417.22
  Q 520.42 408.56 500.99 411.21
  C 484.25 413.49 468.33 423.69 458.55 437.19
  A 1.05 1.05 0.0 0 0 458.92 438.74
  L 464.98 441.92
  A 1.15 1.15 0.0 0 0 466.47 441.54
  Q 472.87 432.06 482.76 426.32
  A 2.09 2.08 -35.1 0 1 485.39 426.77
  C 486.13 427.63 487.26 429.06 487.83 430.16
  Q 496.04 445.98 499.24 451.01
  A 0.80 0.79 54.1 0 1 499.08 452.04
  L 492.01 457.83
  A 2.92 2.91 -50.3 0 1 488.77 458.13
  Q 473.06 449.55 463.91 444.93
  C 459.39 442.65 454.51 439.55 450.84 437.47
  A 2.30 2.30 0.0 0 0 447.74 438.27
  L 447.59 438.51
  A 2.36 2.36 0.0 0 0 448.25 441.67
  L 488.62 470.14
  A 0.74 0.74 0.0 0 0 489.74 469.78"
/>
<path stroke="#282f63" vector-effect="non-scaling-stroke" d="
  M 493.60 549.97
  Q 493.08 550.30 493.15 551.75
  Q 493.26 553.69 494.12 554.67
  A 1.34 1.34 0.0 0 0 496.31 554.41
  Q 496.61 553.86 497.26 551.73
  A 1.55 1.53 -62.6 0 1 499.67 550.95
  C 500.88 551.89 500.49 554.01 500.72 555.08
  A 1.45 1.45 0.0 0 0 503.52 555.21
  Q 503.54 555.17 504.30 552.63
  A 1.44 1.43 -74.2 0 1 506.04 551.65
  C 507.83 552.14 507.90 554.59 508.19 555.91
  A 1.25 1.18 -16.4 0 0 509.82 556.74
  C 511.31 556.19 510.96 553.99 511.27 553.09
  A 1.87 1.87 0.0 0 1 514.87 553.31
  L 515.27 555.18
  A 1.66 1.66 0.0 0 0 518.50 555.24
  Q 518.58 554.93 518.44 552.90
  Q 518.35 551.64 519.81 551.28
  A 1.80 1.78 -14.9 0 1 521.94 552.50
  Q 522.40 554.06 523.14 555.01
  A 1.35 1.35 0.0 0 0 525.55 554.13
  L 525.46 551.48
  A 0.88 0.86 66.6 0 1 525.71 550.82
  Q 526.80 549.72 528.24 550.25
  A 1.59 1.54 -4.0 0 1 529.06 550.94
  L 530.44 553.30
  A 1.18 1.17 -59.0 0 0 532.63 552.75
  L 532.78 549.01
  A 1.31 1.31 0.0 0 1 535.02 548.14
  L 537.74 550.85
  A 1.00 1.00 0.0 0 0 539.45 550.07
  C 539.34 548.56 538.45 545.23 540.90 545.06
  A 1.00 0.96 -23.7 0 1 541.66 545.34
  L 543.96 547.62
  A 1.49 1.48 -49.5 0 0 546.20 547.44
  Q 546.22 547.41 546.30 547.20
  A 0.22 0.18 56.8 0 0 546.31 547.09
  L 545.59 544.36
  A 1.57 1.57 0.0 0 1 548.01 542.68
  L 551.17 544.91
  A 1.04 1.04 0.0 0 0 552.77 543.77
  C 552.34 542.30 550.76 539.66 553.08 538.55
  Q 553.87 538.17 554.52 538.80
  Q 556.06 540.31 557.24 540.97
  A 1.19 1.19 0.0 0 0 558.97 539.66
  Q 558.74 538.69 557.63 537.08
  A 1.30 1.29 30.0 0 1 557.39 536.19
  Q 557.54 534.78 558.97 534.32
  A 1.01 0.99 -35.6 0 1 559.87 534.46
  L 562.72 536.46
  A 1.25 1.24 89.9 0 0 564.45 534.72
  L 562.78 532.37
  A 1.64 1.64 0.0 0 1 564.54 529.84
  Q 565.44 530.01 567.74 531.62
  A 1.41 1.40 40.1 0 0 569.53 531.47
  L 569.78 531.22
  A 1.34 1.34 0.0 0 0 569.62 529.19
  Q 567.13 527.40 568.15 525.16
  A 1.62 1.37 22.7 0 1 570.11 524.54
  Q 571.46 525.06 572.67 525.71
  A 1.30 1.30 0.0 0 0 574.36 523.84
  Q 574.13 523.50 572.49 521.68
  A 1.53 1.50 49.8 0 1 572.65 519.48
  C 573.74 518.62 575.56 519.42 577.36 519.91
  A 1.25 1.24 77.3 0 0 578.63 517.90
  Q 578.30 517.52 576.83 516.45
  A 2.36 2.25 34.6 0 1 576.18 513.33
  Q 576.46 512.90 577.75 512.88
  Q 578.41 512.86 581.00 513.60
  Q 581.60 513.77 581.95 513.27
  A 1.69 1.66 33.7 0 0 581.45 510.89
  Q 580.22 510.12 579.52 509.18
  A 1.76 1.76 0.0 0 1 581.47 506.45
  C 582.66 506.83 584.86 507.49 585.59 506.01
  A 0.97 0.93 27.9 0 0 585.18 504.76
  Q 583.11 503.59 582.76 503.33
  A 1.85 1.85 0.0 0 1 583.34 500.06
  Q 584.48 499.74 586.72 500.04
  A 1.18 1.18 0.0 0 0 587.32 497.77
  L 584.59 496.68
  A 0.86 0.85 7.7 0 1 584.06 495.99
  Q 583.90 494.41 584.77 493.44
  A 1.32 1.32 0.0 0 1 585.79 493.01
  L 588.58 493.13
  A 1.13 1.13 0.0 0 0 589.16 491.01
  Q 588.62 490.72 586.29 489.73
  Q 585.45 489.37 585.40 488.76
  A 2.57 2.25 86.7 0 1 587.53 486.02
  Q 588.20 485.99 590.46 485.82
  A 1.01 1.01 0.0 0 0 590.68 483.85
  L 587.64 482.92
  A 1.33 1.32 79.0 0 1 586.98 482.47
  Q 585.76 480.93 587.18 479.23
  A 1.06 1.06 0.0 0 1 587.94 478.86
  L 590.61 478.77
  A 1.14 1.13 -26.7 0 0 591.28 476.75
  Q 590.44 476.08 588.79 476.07
  A 2.44 2.38 1.0 0 1 586.36 473.61
  Q 586.38 472.87 587.53 472.27
  Q 587.96 472.04 590.89 471.53
  A 1.04 1.00 -17.9 0 0 591.66 470.09
  Q 591.60 469.98 591.32 469.63
  A 0.94 0.93 75.1 0 0 590.76 469.30
  C 589.12 469.00 587.03 468.66 586.31 467.52
  A 1.84 1.46 -27.1 0 1 587.35 465.23
  Q 588.74 464.62 589.94 464.15
  A 1.16 1.15 -46.4 0 0 589.89 461.97
  C 588.29 461.45 584.63 462.36 585.13 459.00
  A 1.34 1.33 86.2 0 1 586.07 457.92
  L 588.43 457.25
  A 1.16 1.16 0.0 0 0 588.27 454.99
  Q 587.08 454.83 585.53 455.00
  A 2.22 2.10 80.7 0 1 583.23 453.25
  Q 583.05 452.41 583.93 451.68
  Q 584.08 451.55 586.52 450.09
  A 1.14 1.14 0.0 0 0 585.90 447.97
  L 582.49 448.09
  A 1.53 1.53 0.0 0 1 581.13 445.76
  Q 582.07 444.22 583.29 443.70
  A 1.31 1.31 0.0 0 0 582.42 441.24
  L 580.33 441.83
  A 1.76 1.76 0.0 0 1 578.60 438.89
  L 580.34 437.15
  A 1.20 1.19 17.2 0 0 579.27 435.13
  Q 578.53 435.26 576.95 435.82
  A 1.86 1.76 -3.2 0 1 574.50 433.75
  Q 574.85 432.46 576.65 430.76
  A 1.04 1.04 0.0 0 0 575.92 428.96
  Q 574.94 428.98 573.29 429.65
  A 1.72 1.49 -10.7 0 1 570.93 428.27
  Q 571.04 426.86 572.52 425.71
  A 1.40 1.40 0.0 0 0 572.78 423.77
  L 572.70 423.67
  A 1.47 1.47 0.0 0 0 570.66 423.37
  Q 568.67 424.81 566.89 423.10
  A 0.85 0.85 0.0 0 1 566.66 422.24
  Q 567.19 420.43 568.34 419.84
  A 0.67 0.66 -54.7 0 0 568.13 418.59
  Q 566.34 418.36 564.55 418.93
  A 0.97 0.96 61.2 0 1 563.51 418.62
  L 561.75 416.47
  A 1.11 1.11 0.0 0 0 559.86 416.76
  L 559.57 417.48
  A 1.79 1.75 -35.0 0 0 559.45 418.12
  Q 559.49 422.27 558.42 425.27
  A 1.21 1.17 39.7 0 0 558.53 426.31
  Q 559.02 427.10 563.86 432.78
  C 570.49 440.57 574.98 449.44 577.77 459.52
  C 584.41 483.50 576.03 507.30 558.82 524.54
  C 542.27 541.13 518.87 547.47 495.91 542.97
  A 1.20 1.20 0.0 0 0 494.56 543.69
  Q 492.55 548.44 488.78 551.13
  A 0.75 0.71 -50.9 0 0 488.88 552.41
  Q 489.10 552.50 489.46 552.35
  Q 489.77 552.21 489.90 552.01
  Q 491.10 550.13 492.89 549.14
  A 0.64 0.64 0.0 0 1 493.66 549.25
  L 493.68 549.28
  A 0.45 0.44 -38.7 0 1 493.60 549.97"
/>
<path stroke="#282f63" vector-effect="non-scaling-stroke" d="
  M 547.6505 417.9410
  A 4.62 4.38 -122.9 0 0 546.4825 424.1991
  A 4.62 4.38 -122.9 0 0 552.6695 425.6990
  A 4.62 4.38 -122.9 0 0 553.8375 419.4409
  A 4.62 4.38 -122.9 0 0 547.6505 417.9410"
/>
<path stroke="#282f63" vector-effect="non-scaling-stroke" d="
  M 543.06 427.04
  A 0.44 0.43 37.3 0 0 542.38 427.13
  C 541.28 429.08 539.19 430.48 537.62 432.71
  Q 523.87 452.20 520.51 457.02
  Q 519.50 458.47 518.85 460.34
  A 1.12 1.12 0.0 0 1 517.35 461.01
  C 505.84 456.12 492.22 462.91 492.84 476.35
  C 493.12 482.36 495.48 486.84 500.32 490.07
  C 512.65 498.29 528.27 487.32 525.83 473.17
  C 525.45 470.94 524.25 468.79 523.68 466.96
  A 1.63 1.63 0.0 0 1 523.95 465.48
  Q 528.92 459.18 532.79 452.03
  Q 540.92 437.05 542.51 433.53
  C 543.56 431.22 544.81 428.73 543.06 427.04"
/>
<path stroke="#282f63" vector-effect="non-scaling-stroke" d="
  M 492.94 529.21
  L 495.64 538.66
  A 0.49 0.48 87.9 0 0 496.01 539.01
  C 512.74 542.46 527.56 539.92 542.47 531.95
  C 548.95 528.49 553.75 524.10 558.31 519.31
  Q 572.30 504.61 575.42 484.18
  C 578.40 464.69 570.35 444.62 556.41 430.83
  A 3.02 3.02 0.0 0 0 553.33 430.12
  Q 550.65 431.03 548.05 430.20
  A 0.70 0.70 0.0 0 0 547.18 430.63
  C 546.33 432.94 550.64 436.13 552.72 437.98
  A 1.77 1.77 0.0 0 1 553.17 440.03
  Q 547.81 452.09 540.51 461.45
  A 2.13 2.12 41.4 0 0 540.69 464.26
  L 541.69 465.26
  A 1.75 1.75 0.0 0 0 544.17 465.26
  L 558.65 450.78
  A 1.06 1.05 49.2 0 1 560.24 450.90
  Q 562.03 453.34 563.38 456.91
  Q 572.15 480.01 560.07 502.29
  Q 558.17 505.81 556.47 507.31
  A 1.79 1.78 44.2 0 1 554.14 507.34
  L 532.07 488.90
  A 2.21 2.21 0.0 0 1 531.48 486.29
  C 534.59 479.56 534.85 473.01 533.84 465.85
  Q 533.49 463.33 532.06 461.23
  A 0.81 0.81 0.0 0 0 530.67 461.31
  L 528.39 465.65
  A 2.29 2.24 -38.8 0 0 528.20 467.25
  Q 528.43 468.14 529.34 471.57
  C 531.70 480.42 526.53 490.31 518.36 494.60
  Q 516.51 495.57 511.32 496.74
  C 509.50 497.14 508.70 497.92 508.35 499.51
  A 0.55 0.55 0.0 0 0 508.85 500.18
  Q 516.85 500.69 522.54 496.09
  A 2.50 2.49 40.9 0 1 525.36 495.89
  Q 526.89 496.79 528.15 497.87
  Q 543.15 510.77 545.99 513.51
  Q 547.12 514.60 547.61 515.41
  A 2.41 2.41 0.0 0 1 547.06 518.53
  C 532.10 530.53 511.57 535.00 493.19 528.96
  A 0.20 0.20 0.0 0 0 492.94 529.21"
/>
<path stroke="#282f63" vector-effect="non-scaling-stroke" d="
  M 466.36 537.26
  L 469.05 530.52
  A 0.31 0.31 0.0 0 0 468.94 530.15
  Q 459.00 522.95 453.09 512.90
  Q 437.52 486.40 445.96 456.43
  C 446.93 452.99 448.62 449.69 449.71 447.00
  A 0.85 0.85 0.0 0 0 449.32 445.93
  L 444.60 443.46
  A 0.82 0.82 0.0 0 1 444.21 442.43
  L 446.50 436.70
  A 1.19 1.16 43.2 0 0 446.46 435.73
  Q 445.84 434.45 443.77 433.34
  A 0.56 0.56 0.0 0 0 442.95 433.84
  L 442.95 435.72
  A 1.49 1.47 -34.3 0 1 442.84 436.28
  Q 435.60 455.19 434.24 471.29
  C 432.50 491.81 439.80 513.24 453.38 528.92
  Q 456.92 533.02 465.71 537.50
  A 0.47 0.47 0.0 0 0 466.36 537.26"
/>
<path stroke="#282f63" vector-effect="non-scaling-stroke" d="
  M 491.11 485.76
  L 488.99 478.35
  A 0.36 0.36 0.0 0 0 488.66 478.09
  L 457.89 476.80
  A 1.96 1.96 0.0 0 1 456.03 475.08
  C 455.23 468.60 457.41 461.20 459.74 455.09
  A 2.06 2.06 0.0 0 0 459.00 452.67
  L 454.42 449.44
  A 1.16 1.16 0.0 0 0 452.68 449.93
  Q 440.67 477.84 453.50 505.29
  Q 459.61 518.35 471.02 526.81
  A 1.42 1.42 0.0 0 0 472.60 526.89
  Q 476.95 524.30 481.45 524.32
  A 0.41 0.41 0.0 0 0 481.67 523.57
  Q 468.19 514.82 461.08 500.70
  Q 457.80 494.20 457.03 488.17
  A 0.93 0.93 0.0 0 1 457.92 487.12
  L 490.96 485.96
  A 0.16 0.15 -9.7 0 0 491.11 485.76"
/>
<path stroke="#282f63" vector-effect="non-scaling-stroke" d="
  M 498.32 493.57
  A 0.62 0.62 0.0 0 0 497.51 493.92
  L 485.09 525.05
  A 0.62 0.62 0.0 0 0 485.43 525.86
  L 489.46 527.47
  A 0.62 0.62 0.0 0 0 490.24 527.18
  L 505.87 497.32
  A 0.62 0.62 0.0 0 0 505.55 496.46
  L 498.32 493.57"
/>
<path stroke="#282f63" vector-effect="non-scaling-stroke" d="
  M 491.39 538.63
  A 10.65 10.65 0.0 0 0 480.74 527.98
  A 10.65 10.65 0.0 0 0 470.09 538.63
  A 10.65 10.65 0.0 0 0 480.74 549.28
  A 10.65 10.65 0.0 0 0 491.39 538.63"
/>
<path stroke="#282f63" vector-effect="non-scaling-stroke" d="
  M 512.25 578.00
  C 544.64 578.00 584.40 576.85 620.24 577.56
  C 634.43 577.84 636.40 556.12 623.07 552.89
  A 3.22 3.14 51.5 0 0 622.28 552.79
  Q 600.96 552.77 551.26 552.53
  C 544.92 552.50 537.46 556.67 533.26 557.80
  Q 523.14 560.54 512.26 560.54
  Q 501.37 560.54 491.25 557.80
  C 487.05 556.67 479.59 552.50 473.25 552.53
  Q 423.55 552.76 402.23 552.78
  A 3.22 3.14 -51.5 0 0 401.44 552.88
  C 388.11 556.10 390.08 577.83 404.27 577.54
  C 440.11 576.84 479.87 577.99 512.25 578.00"
/>
<path stroke="#282f63" vector-effect="non-scaling-stroke" d="
  M 553.01 421.96
  A 2.93 2.93 0.0 0 0 550.08 419.03
  A 2.93 2.93 0.0 0 0 547.15 421.96
  A 2.93 2.93 0.0 0 0 550.08 424.89
  A 2.93 2.93 0.0 0 0 553.01 421.96"
/>
<path stroke="#282f63" vector-effect="non-scaling-stroke" d="
  M 503.1831 469.5169
  A 9.20 8.78 -134.4 0 0 503.3469 482.2330
  A 9.20 8.78 -134.4 0 0 516.0569 482.6631
  A 9.20 8.78 -134.4 0 0 515.8931 469.9470
  A 9.20 8.78 -134.4 0 0 503.1831 469.5169"
/>
<path stroke="#282f63" vector-effect="non-scaling-stroke" d="
  M 513.6461 472.8452
  A 4.36 4.36 0.0 0 0 507.8302 470.7971
  L 507.1628 471.1168
  A 4.36 4.36 0.0 0 0 505.1147 476.9327
  L 506.0739 478.9348
  A 4.36 4.36 0.0 0 0 511.8898 480.9829
  L 512.5572 480.6632
  A 4.36 4.36 0.0 0 0 514.6053 474.8473
  L 513.6461 472.8452"
/>
<path stroke="#282f63" vector-effect="non-scaling-stroke" d="
  M 475.9073 538.1318
  A 4.96 4.50 -176.9 0 0 480.6166 542.8934
  A 4.96 4.50 -176.9 0 0 485.8127 538.6682
  A 4.96 4.50 -176.9 0 0 481.1034 533.9066
  A 4.96 4.50 -176.9 0 0 475.9073 538.1318"
/>
<path stroke="#282f63" vector-effect="non-scaling-stroke" d="
  M 479.7811 539.3641
  A 0.94 0.57 -177.2 0 0 480.6922 539.9793
  A 0.94 0.57 -177.2 0 0 481.6589 539.4559
  A 0.94 0.57 -177.2 0 0 480.7478 538.8407
  A 0.94 0.57 -177.2 0 0 479.7811 539.3641"
/>
<path stroke="#282f63" vector-effect="non-scaling-stroke" d="
  M 645.1692 763.9057
  A 39.00 38.54 -109.8 0 0 622.1185 813.6550
  A 39.00 38.54 -109.8 0 0 671.5908 837.2943
  A 39.00 38.54 -109.8 0 0 694.6415 787.5450
  A 39.00 38.54 -109.8 0 0 645.1692 763.9057"
/>
</g>
<path fill="#0d0c08" d="
  M 1024.00 0.00
  L 1024.00 1024.00
  L 0.00 1024.00
  L 0.00 0.00
  L 1024.00 0.00
  Z
  M 726.23 531.76
  Q 768.32 472.77 775.00 401.03
  Q 776.03 389.94 775.97 376.40
  Q 775.91 361.70 774.98 351.73
  Q 767.44 271.39 718.46 210.21
  Q 702.30 190.02 682.30 173.51
  C 657.61 153.13 628.31 136.38 597.98 126.80
  Q 584.92 122.68 578.67 121.09
  Q 531.88 109.24 483.50 114.04
  C 453.67 117.00 422.69 125.61 395.54 138.47
  C 356.07 157.16 321.13 187.37 295.94 222.66
  C 255.64 279.12 240.00 349.24 250.42 418.06
  C 259.43 477.57 290.96 534.89 336.03 574.34
  Q 350.29 586.82 362.54 595.21
  Q 404.25 623.76 454.41 635.52
  Q 471.50 639.52 499.43 641.59
  Q 510.35 642.40 523.56 641.53
  Q 537.91 640.59 547.62 639.36
  Q 598.21 632.97 642.35 607.60
  Q 692.80 578.61 726.23 531.76
  Z
  M 352.20 761.42
  Q 351.92 760.75 351.92 759.75
  Q 351.97 727.40 352.00 703.25
  C 352.00 699.01 352.51 696.14 347.77 695.76
  Q 335.64 694.76 328.00 696.06
  C 324.40 696.67 325.19 702.93 325.21 705.04
  Q 326.13 796.02 325.09 849.24
  Q 325.00 854.00 325.72 857.29
  A 2.14 2.14 0.0 0 0 327.81 858.97
  L 350.32 858.97
  A 1.66 1.66 0.0 0 0 351.98 857.31
  L 351.98 801.76
  A 2.54 2.52 67.6 0 1 352.72 799.97
  L 365.75 786.94
  A 1.14 1.13 -41.3 0 1 367.46 787.05
  Q 386.56 812.41 417.63 853.13
  C 418.78 854.63 420.27 857.02 422.04 858.46
  A 4.65 4.65 0.0 0 0 424.91 859.52
  Q 435.43 859.73 448.01 859.08
  Q 449.55 859.00 450.66 858.48
  C 454.64 856.63 448.40 848.28 446.88 846.37
  Q 423.33 816.77 394.88 780.12
  Q 390.23 774.12 385.63 767.31
  A 1.05 1.05 0.0 0 1 385.74 766.00
  Q 392.23 759.14 419.40 730.05
  C 428.62 720.18 437.96 710.86 446.09 701.36
  Q 447.28 699.97 447.83 698.41
  C 448.47 696.60 447.08 695.19 445.50 695.14
  Q 438.19 694.87 420.64 695.08
  C 417.30 695.12 415.22 696.26 413.06 698.57
  Q 389.96 723.26 376.29 737.78
  Q 363.01 751.88 353.59 761.69
  A 0.84 0.84 0.0 0 1 352.20 761.42
  Z
  M 201.23 720.25
  Q 204.52 720.02 210.00 720.00
  Q 237.28 719.91 242.26 720.02
  Q 244.85 720.08 244.93 717.48
  Q 245.22 708.06 244.89 697.64
  A 1.71 1.70 0.4 0 0 243.26 696.00
  Q 228.56 695.34 215.50 695.42
  Q 209.47 695.45 147.25 695.29
  Q 136.90 695.26 129.70 695.57
  A 1.57 1.55 -85.2 0 0 128.24 696.82
  Q 128.11 697.48 128.10 699.51
  Q 128.02 709.17 128.11 717.44
  Q 128.13 720.04 131.47 720.06
  Q 141.90 720.10 172.58 720.12
  A 1.43 1.42 -90.0 0 1 174.00 721.55
  L 174.00 857.75
  A 0.43 0.39 -66.5 0 0 174.09 858.01
  Q 174.86 858.95 177.04 858.99
  Q 188.24 859.21 198.20 858.89
  Q 200.39 858.82 200.35 856.52
  Q 199.90 825.87 200.13 808.72
  Q 200.41 787.50 200.25 764.79
  Q 200.20 757.02 200.70 720.81
  A 0.57 0.57 0.0 0 1 201.23 720.25
  Z
  M 293.01 698.89
  A 3.29 3.29 0.0 0 0 289.72 695.60
  L 269.22 695.60
  A 3.29 3.29 0.0 0 0 265.93 698.89
  L 265.93 855.69
  A 3.29 3.29 0.0 0 0 269.22 858.98
  L 289.72 858.98
  A 3.29 3.29 0.0 0 0 293.01 855.69
  L 293.01 698.89
  Z
  M 775.77 716.84
  A 14.73 14.73 0.0 0 0 761.04 702.11
  A 14.73 14.73 0.0 0 0 746.31 716.84
  A 14.73 14.73 0.0 0 0 761.04 731.57
  A 14.73 14.73 0.0 0 0 775.77 716.84
  Z
  M 901.55 857.65
  Q 901.86 856.59 901.87 854.77
  Q 902.10 790.71 902.08 789.75
  Q 901.78 778.77 901.42 774.52
  C 899.92 756.90 889.20 743.13 872.52 739.33
  Q 849.32 734.04 829.98 748.89
  Q 825.65 752.22 822.83 755.57
  A 0.98 0.98 0.0 0 1 821.19 755.36
  Q 821.03 755.03 821.03 754.73
  Q 820.83 747.91 819.80 744.18
  Q 819.12 741.72 816.74 742.07
  Q 810.21 743.04 803.77 742.17
  Q 802.41 741.99 800.70 742.45
  A 2.14 2.13 -7.6 0 0 799.12 744.51
  L 799.12 857.04
  A 1.90 1.90 0.0 0 0 801.02 858.94
  L 820.97 858.94
  A 1.91 1.90 -86.8 0 0 822.86 857.24
  Q 823.02 855.76 823.01 853.75
  Q 822.90 817.32 822.95 797.75
  C 822.99 785.19 823.76 774.15 835.27 766.77
  Q 847.68 758.82 861.65 761.91
  C 875.13 764.89 879.35 777.79 879.31 789.76
  Q 879.15 840.72 879.14 851.50
  Q 879.14 855.57 879.41 857.40
  A 1.82 1.82 0.0 0 0 881.21 858.95
  L 899.82 858.95
  A 1.80 1.79 7.9 0 0 901.55 857.65
  Z
  M 579.37 772.91
  C 569.96 752.01 549.51 739.22 526.49 738.78
  C 500.87 738.28 479.09 750.81 468.90 774.57
  C 461.99 790.68 462.57 809.70 469.49 825.61
  C 476.29 841.21 487.12 852.11 502.79 858.20
  Q 513.44 862.35 526.03 862.17
  Q 555.81 861.75 574.49 837.24
  Q 578.24 832.33 579.08 829.58
  Q 579.92 826.85 577.41 825.85
  Q 566.84 821.64 562.99 820.52
  C 559.99 819.65 558.60 819.28 556.75 821.92
  C 551.55 829.32 544.67 834.98 536.14 837.90
  C 525.91 841.40 513.95 839.50 504.88 832.54
  C 481.67 814.73 483.10 777.99 509.84 764.41
  Q 513.69 762.46 518.36 761.86
  C 528.14 760.62 536.68 761.80 544.87 767.70
  Q 549.39 770.95 555.37 778.93
  C 556.79 780.81 558.42 782.35 560.63 781.65
  Q 567.87 779.37 578.34 775.40
  A 1.86 1.85 67.5 0 0 579.37 772.91
  Z
  M 721.3154 798.7162
  A 63.17 62.03 -1.6 0 0 656.4380 738.4742
  A 63.17 62.03 -1.6 0 0 595.0246 802.2438
  A 63.17 62.03 -1.6 0 0 659.9020 862.4858
  A 63.17 62.03 -1.6 0 0 721.3154 798.7162
  Z
  M 773.01 745.96
  A 3.02 3.02 0.0 0 0 769.99 742.94
  L 752.05 742.94
  A 3.02 3.02 0.0 0 0 749.03 745.96
  L 749.03 855.66
  A 3.02 3.02 0.0 0 0 752.05 858.68
  L 769.99 858.68
  A 3.02 3.02 0.0 0 0 773.01 855.66
  L 773.01 745.96
  Z"
/>
<g>
<path fill="#4251bd" d="
  M 726.23 531.76
  Q 692.80 578.61 642.35 607.60
  Q 598.21 632.97 547.62 639.36
  Q 537.91 640.59 523.56 641.53
  Q 510.35 642.40 499.43 641.59
  Q 471.50 639.52 454.41 635.52
  Q 404.25 623.76 362.54 595.21
  Q 350.29 586.82 336.03 574.34
  C 290.96 534.89 259.43 477.57 250.42 418.06
  C 240.00 349.24 255.64 279.12 295.94 222.66
  C 321.13 187.37 356.07 157.16 395.54 138.47
  C 422.69 125.61 453.67 117.00 483.50 114.04
  Q 531.88 109.24 578.67 121.09
  Q 584.92 122.68 597.98 126.80
  C 628.31 136.38 657.61 153.13 682.30 173.51
  Q 702.30 190.02 718.46 210.21
  Q 767.44 271.39 774.98 351.73
  Q 775.91 361.70 775.97 376.40
  Q 776.03 389.94 775.00 401.03
  Q 768.32 472.77 726.23 531.76
  Z
  M 295.18 258.55
  Q 283.87 280.14 277.88 298.37
  C 259.51 354.23 261.04 415.87 284.08 470.44
  Q 308.64 528.60 357.57 567.93
  Q 414.17 613.43 485.85 620.95
  C 498.36 622.27 512.35 622.38 524.57 621.83
  Q 574.10 619.61 619.47 597.96
  Q 639.57 588.37 660.03 572.80
  Q 686.76 552.46 704.53 529.81
  Q 709.02 524.09 714.58 515.88
  Q 722.31 504.48 724.03 501.54
  Q 735.67 481.69 742.59 462.88
  Q 760.35 414.56 757.61 363.28
  Q 755.39 321.74 739.23 281.69
  Q 737.41 277.20 734.79 272.15
  C 730.71 264.28 727.17 256.42 722.55 248.91
  C 703.56 218.03 677.54 191.95 647.64 171.96
  C 620.32 153.69 588.97 142.61 556.52 136.44
  C 538.15 132.96 517.95 131.81 500.01 132.52
  C 476.53 133.45 454.26 137.94 431.67 145.38
  Q 389.89 159.14 355.81 187.02
  Q 339.61 200.27 327.24 213.72
  Q 321.08 220.41 310.01 235.29
  Q 301.08 247.28 295.18 258.55
  Z"
/>
<path fill="#4251bd" d="
  M 352.20 761.42
  A 0.84 0.84 0.0 0 0 353.59 761.69
  Q 363.01 751.88 376.29 737.78
  Q 389.96 723.26 413.06 698.57
  C 415.22 696.26 417.30 695.12 420.64 695.08
  Q 438.19 694.87 445.50 695.14
  C 447.08 695.19 448.47 696.60 447.83 698.41
  Q 447.28 699.97 446.09 701.36
  C 437.96 710.86 428.62 720.18 419.40 730.05
  Q 392.23 759.14 385.74 766.00
  A 1.05 1.05 0.0 0 0 385.63 767.31
  Q 390.23 774.12 394.88 780.12
  Q 423.33 816.77 446.88 846.37
  C 448.40 848.28 454.64 856.63 450.66 858.48
  Q 449.55 859.00 448.01 859.08
  Q 435.43 859.73 424.91 859.52
  A 4.65 4.65 0.0 0 1 422.04 858.46
  C 420.27 857.02 418.78 854.63 417.63 853.13
  Q 386.56 812.41 367.46 787.05
  A 1.14 1.13 -41.3 0 0 365.75 786.94
  L 352.72 799.97
  A 2.54 2.52 67.6 0 0 351.98 801.76
  L 351.98 857.31
  A 1.66 1.66 0.0 0 1 350.32 858.97
  L 327.81 858.97
  A 2.14 2.14 0.0 0 1 325.72 857.29
  Q 325.00 854.00 325.09 849.24
  Q 326.13 796.02 325.21 705.04
  C 325.19 702.93 324.40 696.67 328.00 696.06
  Q 335.64 694.76 347.77 695.76
  C 352.51 696.14 352.00 699.01 352.00 703.25
  Q 351.97 727.40 351.92 759.75
  Q 351.92 760.75 352.20 761.42
  Z"
/>
<path fill="#4251bd" d="
  M 200.70 720.81
  Q 200.20 757.02 200.25 764.79
  Q 200.41 787.50 200.13 808.72
  Q 199.90 825.87 200.35 856.52
  Q 200.39 858.82 198.20 858.89
  Q 188.24 859.21 177.04 858.99
  Q 174.86 858.95 174.09 858.01
  A 0.43 0.39 -66.5 0 1 174.00 857.75
  L 174.00 721.55
  A 1.43 1.42 -90.0 0 0 172.58 720.12
  Q 141.90 720.10 131.47 720.06
  Q 128.13 720.04 128.11 717.44
  Q 128.02 709.17 128.10 699.51
  Q 128.11 697.48 128.24 696.82
  A 1.57 1.55 -85.2 0 1 129.70 695.57
  Q 136.90 695.26 147.25 695.29
  Q 209.47 695.45 215.50 695.42
  Q 228.56 695.34 243.26 696.00
  A 1.71 1.70 0.4 0 1 244.89 697.64
  Q 245.22 708.06 244.93 717.48
  Q 244.85 720.08 242.26 720.02
  Q 237.28 719.91 210.00 720.00
  Q 204.52 720.02 201.23 720.25
  A 0.57 0.57 0.0 0 0 200.70 720.81
  Z"
/>
<path fill="#4251bd" d="
  M 293.01 855.69
  A 3.29 3.29 0.0 0 1 289.72 858.98
  L 269.22 858.98
  A 3.29 3.29 0.0 0 1 265.93 855.69
  L 265.93 698.89
  A 3.29 3.29 0.0 0 1 269.22 695.60
  L 289.72 695.60
  A 3.29 3.29 0.0 0 1 293.01 698.89
  L 293.01 855.69
  Z"
/>
<path fill="#4251bd" d="
  M 775.77 716.84
  A 14.73 14.73 0.0 0 1 761.04 731.57
  A 14.73 14.73 0.0 0 1 746.31 716.84
  A 14.73 14.73 0.0 0 1 761.04 702.11
  A 14.73 14.73 0.0 0 1 775.77 716.84
  Z"
/>
<path fill="#4251bd" d="
  M 901.55 857.65
  A 1.80 1.79 7.9 0 1 899.82 858.95
  L 881.21 858.95
  A 1.82 1.82 0.0 0 1 879.41 857.40
  Q 879.14 855.57 879.14 851.50
  Q 879.15 840.72 879.31 789.76
  C 879.35 777.79 875.13 764.89 861.65 761.91
  Q 847.68 758.82 835.27 766.77
  C 823.76 774.15 822.99 785.19 822.95 797.75
  Q 822.90 817.32 823.01 853.75
  Q 823.02 855.76 822.86 857.24
  A 1.91 1.90 -86.8 0 1 820.97 858.94
  L 801.02 858.94
  A 1.90 1.90 0.0 0 1 799.12 857.04
  L 799.12 744.51
  A 2.14 2.13 -7.6 0 1 800.70 742.45
  Q 802.41 741.99 803.77 742.17
  Q 810.21 743.04 816.74 742.07
  Q 819.12 741.72 819.80 744.18
  Q 820.83 747.91 821.03 754.73
  Q 821.03 755.03 821.19 755.36
  A 0.98 0.98 0.0 0 0 822.83 755.57
  Q 825.65 752.22 829.98 748.89
  Q 849.32 734.04 872.52 739.33
  C 889.20 743.13 899.92 756.90 901.42 774.52
  Q 901.78 778.77 902.08 789.75
  Q 902.10 790.71 901.87 854.77
  Q 901.86 856.59 901.55 857.65
  Z"
/>
<path fill="#4251bd" d="
  M 579.37 772.91
  A 1.86 1.85 67.5 0 1 578.34 775.40
  Q 567.87 779.37 560.63 781.65
  C 558.42 782.35 556.79 780.81 555.37 778.93
  Q 549.39 770.95 544.87 767.70
  C 536.68 761.80 528.14 760.62 518.36 761.86
  Q 513.69 762.46 509.84 764.41
  C 483.10 777.99 481.67 814.73 504.88 832.54
  C 513.95 839.50 525.91 841.40 536.14 837.90
  C 544.67 834.98 551.55 829.32 556.75 821.92
  C 558.60 819.28 559.99 819.65 562.99 820.52
  Q 566.84 821.64 577.41 825.85
  Q 579.92 826.85 579.08 829.58
  Q 578.24 832.33 574.49 837.24
  Q 555.81 861.75 526.03 862.17
  Q 513.44 862.35 502.79 858.20
  C 487.12 852.11 476.29 841.21 469.49 825.61
  C 462.57 809.70 461.99 790.68 468.90 774.57
  C 479.09 750.81 500.87 738.28 526.49 738.78
  C 549.51 739.22 569.96 752.01 579.37 772.91
  Z"
/>
<path fill="#4251bd" d="
  M 721.3154 798.7162
  A 63.17 62.03 -1.6 0 1 659.9020 862.4858
  A 63.17 62.03 -1.6 0 1 595.0246 802.2438
  A 63.17 62.03 -1.6 0 1 656.4380 738.4742
  A 63.17 62.03 -1.6 0 1 721.3154 798.7162
  Z
  M 645.1692 763.9057
  A 39.00 38.54 -109.8 0 0 622.1185 813.6550
  A 39.00 38.54 -109.8 0 0 671.5908 837.2943
  A 39.00 38.54 -109.8 0 0 694.6415 787.5450
  A 39.00 38.54 -109.8 0 0 645.1692 763.9057
  Z"
/>
<path fill="#4251bd" d="
  M 773.01 855.66
  A 3.02 3.02 0.0 0 1 769.99 858.68
  L 752.05 858.68
  A 3.02 3.02 0.0 0 1 749.03 855.66
  L 749.03 745.96
  A 3.02 3.02 0.0 0 1 752.05 742.94
  L 769.99 742.94
  A 3.02 3.02 0.0 0 1 773.01 745.96
  L 773.01 855.66
  Z"
/>
</g>
<g>
<path fill="#0d0c08" d="
  M 310.01 235.29
  Q 321.08 220.41 327.24 213.72
  Q 339.61 200.27 355.81 187.02
  Q 389.89 159.14 431.67 145.38
  C 454.26 137.94 476.53 133.45 500.01 132.52
  C 517.95 131.81 538.15 132.96 556.52 136.44
  C 588.97 142.61 620.32 153.69 647.64 171.96
  C 677.54 191.95 703.56 218.03 722.55 248.91
  C 727.17 256.42 730.71 264.28 734.79 272.15
  Q 737.41 277.20 739.23 281.69
  Q 755.39 321.74 757.61 363.28
  Q 760.35 414.56 742.59 462.88
  Q 735.67 481.69 724.03 501.54
  Q 722.31 504.48 714.58 515.88
  Q 709.02 524.09 704.53 529.81
  Q 686.76 552.46 660.03 572.80
  Q 639.57 588.37 619.47 597.96
  Q 574.10 619.61 524.57 621.83
  C 512.35 622.38 498.36 622.27 485.85 620.95
  Q 414.17 613.43 357.57 567.93
  Q 308.64 528.60 284.08 470.44
  C 261.04 415.87 259.51 354.23 277.88 298.37
  Q 283.87 280.14 295.18 258.55
  Q 301.08 247.28 310.01 235.29
  Z
  M 631.18 182.19
  A 11.38 11.38 0.0 0 0 619.80 170.81
  L 403.68 170.81
  A 11.38 11.38 0.0 0 0 392.30 182.19
  L 392.30 184.49
  A 11.38 11.38 0.0 0 0 403.68 195.87
  L 619.80 195.87
  A 11.38 11.38 0.0 0 0 631.18 184.49
  L 631.18 182.19
  Z
  M 423.38 201.94
  L 409.65 201.94
  A 0.51 0.50 -1.1 0 0 409.14 202.46
  C 409.35 211.83 408.67 225.44 409.88 235.52
  C 413.35 264.45 428.40 291.16 448.78 311.92
  Q 455.13 318.39 463.85 326.36
  C 474.53 336.13 487.41 352.79 479.67 368.20
  C 475.80 375.89 469.21 381.91 462.11 387.36
  Q 445.00 400.49 433.55 413.29
  Q 422.46 425.69 414.63 442.68
  Q 402.68 468.62 403.03 495.23
  Q 403.26 512.90 402.96 543.35
  A 0.67 0.67 0.0 0 0 403.63 544.02
  L 415.00 544.02
  A 0.66 0.66 0.0 0 0 415.66 543.43
  Q 416.02 539.75 416.02 535.75
  Q 416.01 523.75 415.68 504.50
  Q 415.44 490.52 416.83 480.03
  C 419.99 456.32 430.55 433.79 447.41 416.81
  Q 455.92 408.24 465.70 400.94
  Q 478.43 391.44 486.12 381.64
  C 501.72 361.78 493.26 337.74 477.22 321.27
  Q 472.08 315.99 461.15 304.96
  Q 455.08 298.83 445.89 287.20
  Q 429.29 266.20 425.12 240.25
  Q 424.06 233.61 423.89 221.47
  Q 423.74 211.09 424.06 202.64
  A 0.68 0.67 1.2 0 0 423.38 201.94
  Z
  M 600.71 201.95
  A 0.73 0.72 89.6 0 0 599.99 202.69
  Q 600.19 215.85 599.78 228.25
  C 599.09 248.64 592.54 267.36 580.57 283.76
  C 571.67 295.97 561.45 306.30 549.71 318.07
  C 544.82 322.98 539.44 329.22 536.42 334.16
  C 528.37 347.32 526.13 362.60 534.49 376.33
  Q 539.71 384.89 550.25 393.69
  Q 564.17 405.31 565.08 406.08
  C 587.67 425.09 601.81 450.48 606.20 479.54
  C 607.67 489.30 607.63 499.88 607.65 510.25
  Q 607.65 510.68 607.62 543.43
  A 0.59 0.59 0.0 0 0 608.21 544.02
  L 619.35 544.02
  A 0.76 0.76 0.0 0 0 620.11 543.27
  Q 620.14 513.32 619.89 492.26
  C 619.48 456.23 603.02 423.43 576.32 399.18
  Q 568.91 392.45 561.23 386.66
  C 555.90 382.64 550.70 377.66 547.22 373.02
  Q 539.05 362.10 543.70 348.94
  C 548.74 334.72 558.98 327.19 572.11 314.63
  Q 583.83 303.41 594.16 287.90
  Q 605.31 271.15 610.95 250.84
  C 615.23 235.46 615.26 219.30 614.85 202.92
  A 0.99 0.99 0.0 0 0 613.86 201.95
  L 600.71 201.95
  Z
  M 590.05 235.21
  L 433.46 235.21
  A 0.46 0.45 -2.8 0 0 433.00 235.71
  C 434.92 255.39 443.49 272.86 456.42 287.83
  Q 465.73 298.60 486.98 320.04
  C 500.11 333.30 506.29 349.47 506.88 367.77
  Q 507.24 378.82 507.00 390.53
  A 1.24 1.24 0.0 0 0 508.24 391.79
  L 514.70 391.79
  A 1.19 1.18 89.8 0 0 515.88 390.59
  Q 515.76 379.29 515.98 367.91
  C 516.10 362.09 517.06 357.51 518.14 352.37
  C 520.52 340.98 526.78 330.74 535.26 322.01
  Q 556.75 299.91 566.25 289.25
  C 579.67 274.18 588.74 256.26 590.90 236.16
  A 0.86 0.85 3.3 0 0 590.05 235.21
  Z
  M 554.37 412.10
  Q 554.10 411.79 552.69 410.82
  C 524.05 390.95 485.76 393.16 460.14 416.92
  Q 456.22 420.55 448.35 430.62
  A 1.68 1.67 -57.2 0 0 448.89 433.14
  L 452.84 435.21
  A 2.15 2.15 0.0 0 0 455.59 434.54
  C 466.64 418.80 485.39 407.73 504.70 406.76
  C 515.97 406.19 525.92 407.27 536.44 411.87
  Q 541.68 414.15 542.44 414.68
  A 1.11 1.10 44.7 0 0 543.69 414.68
  Q 547.69 411.99 553.55 413.45
  A 0.83 0.82 -13.9 0 0 554.37 412.10
  Z
  M 489.74 469.78
  Q 493.00 460.71 501.50 457.08
  C 504.46 455.81 507.81 455.82 511.07 455.38
  Q 512.19 455.23 513.20 452.96
  A 0.70 0.70 0.0 0 0 512.95 452.09
  C 512.32 451.67 511.60 451.69 511.06 450.93
  Q 508.74 447.64 508.15 446.59
  Q 503.19 437.74 495.46 423.38
  A 1.60 1.60 0.0 0 1 496.37 421.10
  C 509.18 416.89 525.38 420.03 536.62 426.26
  A 2.58 2.58 0.0 0 0 540.41 424.45
  L 540.90 421.62
  A 4.09 4.08 -72.4 0 0 538.63 417.22
  Q 520.42 408.56 500.99 411.21
  C 484.25 413.49 468.33 423.69 458.55 437.19
  A 1.05 1.05 0.0 0 0 458.92 438.74
  L 464.98 441.92
  A 1.15 1.15 0.0 0 0 466.47 441.54
  Q 472.87 432.06 482.76 426.32
  A 2.09 2.08 -35.1 0 1 485.39 426.77
  C 486.13 427.63 487.26 429.06 487.83 430.16
  Q 496.04 445.98 499.24 451.01
  A 0.80 0.79 54.1 0 1 499.08 452.04
  L 492.01 457.83
  A 2.92 2.91 -50.3 0 1 488.77 458.13
  Q 473.06 449.55 463.91 444.93
  C 459.39 442.65 454.51 439.55 450.84 437.47
  A 2.30 2.30 0.0 0 0 447.74 438.27
  L 447.59 438.51
  A 2.36 2.36 0.0 0 0 448.25 441.67
  L 488.62 470.14
  A 0.74 0.74 0.0 0 0 489.74 469.78
  Z
  M 493.60 549.97
  Q 493.08 550.30 493.15 551.75
  Q 493.26 553.69 494.12 554.67
  A 1.34 1.34 0.0 0 0 496.31 554.41
  Q 496.61 553.86 497.26 551.73
  A 1.55 1.53 -62.6 0 1 499.67 550.95
  C 500.88 551.89 500.49 554.01 500.72 555.08
  A 1.45 1.45 0.0 0 0 503.52 555.21
  Q 503.54 555.17 504.30 552.63
  A 1.44 1.43 -74.2 0 1 506.04 551.65
  C 507.83 552.14 507.90 554.59 508.19 555.91
  A 1.25 1.18 -16.4 0 0 509.82 556.74
  C 511.31 556.19 510.96 553.99 511.27 553.09
  A 1.87 1.87 0.0 0 1 514.87 553.31
  L 515.27 555.18
  A 1.66 1.66 0.0 0 0 518.50 555.24
  Q 518.58 554.93 518.44 552.90
  Q 518.35 551.64 519.81 551.28
  A 1.80 1.78 -14.9 0 1 521.94 552.50
  Q 522.40 554.06 523.14 555.01
  A 1.35 1.35 0.0 0 0 525.55 554.13
  L 525.46 551.48
  A 0.88 0.86 66.6 0 1 525.71 550.82
  Q 526.80 549.72 528.24 550.25
  A 1.59 1.54 -4.0 0 1 529.06 550.94
  L 530.44 553.30
  A 1.18 1.17 -59.0 0 0 532.63 552.75
  L 532.78 549.01
  A 1.31 1.31 0.0 0 1 535.02 548.14
  L 537.74 550.85
  A 1.00 1.00 0.0 0 0 539.45 550.07
  C 539.34 548.56 538.45 545.23 540.90 545.06
  A 1.00 0.96 -23.7 0 1 541.66 545.34
  L 543.96 547.62
  A 1.49 1.48 -49.5 0 0 546.20 547.44
  Q 546.22 547.41 546.30 547.20
  A 0.22 0.18 56.8 0 0 546.31 547.09
  L 545.59 544.36
  A 1.57 1.57 0.0 0 1 548.01 542.68
  L 551.17 544.91
  A 1.04 1.04 0.0 0 0 552.77 543.77
  C 552.34 542.30 550.76 539.66 553.08 538.55
  Q 553.87 538.17 554.52 538.80
  Q 556.06 540.31 557.24 540.97
  A 1.19 1.19 0.0 0 0 558.97 539.66
  Q 558.74 538.69 557.63 537.08
  A 1.30 1.29 30.0 0 1 557.39 536.19
  Q 557.54 534.78 558.97 534.32
  A 1.01 0.99 -35.6 0 1 559.87 534.46
  L 562.72 536.46
  A 1.25 1.24 89.9 0 0 564.45 534.72
  L 562.78 532.37
  A 1.64 1.64 0.0 0 1 564.54 529.84
  Q 565.44 530.01 567.74 531.62
  A 1.41 1.40 40.1 0 0 569.53 531.47
  L 569.78 531.22
  A 1.34 1.34 0.0 0 0 569.62 529.19
  Q 567.13 527.40 568.15 525.16
  A 1.62 1.37 22.7 0 1 570.11 524.54
  Q 571.46 525.06 572.67 525.71
  A 1.30 1.30 0.0 0 0 574.36 523.84
  Q 574.13 523.50 572.49 521.68
  A 1.53 1.50 49.8 0 1 572.65 519.48
  C 573.74 518.62 575.56 519.42 577.36 519.91
  A 1.25 1.24 77.3 0 0 578.63 517.90
  Q 578.30 517.52 576.83 516.45
  A 2.36 2.25 34.6 0 1 576.18 513.33
  Q 576.46 512.90 577.75 512.88
  Q 578.41 512.86 581.00 513.60
  Q 581.60 513.77 581.95 513.27
  A 1.69 1.66 33.7 0 0 581.45 510.89
  Q 580.22 510.12 579.52 509.18
  A 1.76 1.76 0.0 0 1 581.47 506.45
  C 582.66 506.83 584.86 507.49 585.59 506.01
  A 0.97 0.93 27.9 0 0 585.18 504.76
  Q 583.11 503.59 582.76 503.33
  A 1.85 1.85 0.0 0 1 583.34 500.06
  Q 584.48 499.74 586.72 500.04
  A 1.18 1.18 0.0 0 0 587.32 497.77
  L 584.59 496.68
  A 0.86 0.85 7.7 0 1 584.06 495.99
  Q 583.90 494.41 584.77 493.44
  A 1.32 1.32 0.0 0 1 585.79 493.01
  L 588.58 493.13
  A 1.13 1.13 0.0 0 0 589.16 491.01
  Q 588.62 490.72 586.29 489.73
  Q 585.45 489.37 585.40 488.76
  A 2.57 2.25 86.7 0 1 587.53 486.02
  Q 588.20 485.99 590.46 485.82
  A 1.01 1.01 0.0 0 0 590.68 483.85
  L 587.64 482.92
  A 1.33 1.32 79.0 0 1 586.98 482.47
  Q 585.76 480.93 587.18 479.23
  A 1.06 1.06 0.0 0 1 587.94 478.86
  L 590.61 478.77
  A 1.14 1.13 -26.7 0 0 591.28 476.75
  Q 590.44 476.08 588.79 476.07
  A 2.44 2.38 1.0 0 1 586.36 473.61
  Q 586.38 472.87 587.53 472.27
  Q 587.96 472.04 590.89 471.53
  A 1.04 1.00 -17.9 0 0 591.66 470.09
  Q 591.60 469.98 591.32 469.63
  A 0.94 0.93 75.1 0 0 590.76 469.30
  C 589.12 469.00 587.03 468.66 586.31 467.52
  A 1.84 1.46 -27.1 0 1 587.35 465.23
  Q 588.74 464.62 589.94 464.15
  A 1.16 1.15 -46.4 0 0 589.89 461.97
  C 588.29 461.45 584.63 462.36 585.13 459.00
  A 1.34 1.33 86.2 0 1 586.07 457.92
  L 588.43 457.25
  A 1.16 1.16 0.0 0 0 588.27 454.99
  Q 587.08 454.83 585.53 455.00
  A 2.22 2.10 80.7 0 1 583.23 453.25
  Q 583.05 452.41 583.93 451.68
  Q 584.08 451.55 586.52 450.09
  A 1.14 1.14 0.0 0 0 585.90 447.97
  L 582.49 448.09
  A 1.53 1.53 0.0 0 1 581.13 445.76
  Q 582.07 444.22 583.29 443.70
  A 1.31 1.31 0.0 0 0 582.42 441.24
  L 580.33 441.83
  A 1.76 1.76 0.0 0 1 578.60 438.89
  L 580.34 437.15
  A 1.20 1.19 17.2 0 0 579.27 435.13
  Q 578.53 435.26 576.95 435.82
  A 1.86 1.76 -3.2 0 1 574.50 433.75
  Q 574.85 432.46 576.65 430.76
  A 1.04 1.04 0.0 0 0 575.92 428.96
  Q 574.94 428.98 573.29 429.65
  A 1.72 1.49 -10.7 0 1 570.93 428.27
  Q 571.04 426.86 572.52 425.71
  A 1.40 1.40 0.0 0 0 572.78 423.77
  L 572.70 423.67
  A 1.47 1.47 0.0 0 0 570.66 423.37
  Q 568.67 424.81 566.89 423.10
  A 0.85 0.85 0.0 0 1 566.66 422.24
  Q 567.19 420.43 568.34 419.84
  A 0.67 0.66 -54.7 0 0 568.13 418.59
  Q 566.34 418.36 564.55 418.93
  A 0.97 0.96 61.2 0 1 563.51 418.62
  L 561.75 416.47
  A 1.11 1.11 0.0 0 0 559.86 416.76
  L 559.57 417.48
  A 1.79 1.75 -35.0 0 0 559.45 418.12
  Q 559.49 422.27 558.42 425.27
  A 1.21 1.17 39.7 0 0 558.53 426.31
  Q 559.02 427.10 563.86 432.78
  C 570.49 440.57 574.98 449.44 577.77 459.52
  C 584.41 483.50 576.03 507.30 558.82 524.54
  C 542.27 541.13 518.87 547.47 495.91 542.97
  A 1.20 1.20 0.0 0 0 494.56 543.69
  Q 492.55 548.44 488.78 551.13
  A 0.75 0.71 -50.9 0 0 488.88 552.41
  Q 489.10 552.50 489.46 552.35
  Q 489.77 552.21 489.90 552.01
  Q 491.10 550.13 492.89 549.14
  A 0.64 0.64 0.0 0 1 493.66 549.25
  L 493.68 549.28
  A 0.45 0.44 -38.7 0 1 493.60 549.97
  Z
  M 547.6505 417.9410
  A 4.62 4.38 -122.9 0 0 546.4825 424.1991
  A 4.62 4.38 -122.9 0 0 552.6695 425.6990
  A 4.62 4.38 -122.9 0 0 553.8375 419.4409
  A 4.62 4.38 -122.9 0 0 547.6505 417.9410
  Z
  M 543.06 427.04
  A 0.44 0.43 37.3 0 0 542.38 427.13
  C 541.28 429.08 539.19 430.48 537.62 432.71
  Q 523.87 452.20 520.51 457.02
  Q 519.50 458.47 518.85 460.34
  A 1.12 1.12 0.0 0 1 517.35 461.01
  C 505.84 456.12 492.22 462.91 492.84 476.35
  C 493.12 482.36 495.48 486.84 500.32 490.07
  C 512.65 498.29 528.27 487.32 525.83 473.17
  C 525.45 470.94 524.25 468.79 523.68 466.96
  A 1.63 1.63 0.0 0 1 523.95 465.48
  Q 528.92 459.18 532.79 452.03
  Q 540.92 437.05 542.51 433.53
  C 543.56 431.22 544.81 428.73 543.06 427.04
  Z
  M 492.94 529.21
  L 495.64 538.66
  A 0.49 0.48 87.9 0 0 496.01 539.01
  C 512.74 542.46 527.56 539.92 542.47 531.95
  C 548.95 528.49 553.75 524.10 558.31 519.31
  Q 572.30 504.61 575.42 484.18
  C 578.40 464.69 570.35 444.62 556.41 430.83
  A 3.02 3.02 0.0 0 0 553.33 430.12
  Q 550.65 431.03 548.05 430.20
  A 0.70 0.70 0.0 0 0 547.18 430.63
  C 546.33 432.94 550.64 436.13 552.72 437.98
  A 1.77 1.77 0.0 0 1 553.17 440.03
  Q 547.81 452.09 540.51 461.45
  A 2.13 2.12 41.4 0 0 540.69 464.26
  L 541.69 465.26
  A 1.75 1.75 0.0 0 0 544.17 465.26
  L 558.65 450.78
  A 1.06 1.05 49.2 0 1 560.24 450.90
  Q 562.03 453.34 563.38 456.91
  Q 572.15 480.01 560.07 502.29
  Q 558.17 505.81 556.47 507.31
  A 1.79 1.78 44.2 0 1 554.14 507.34
  L 532.07 488.90
  A 2.21 2.21 0.0 0 1 531.48 486.29
  C 534.59 479.56 534.85 473.01 533.84 465.85
  Q 533.49 463.33 532.06 461.23
  A 0.81 0.81 0.0 0 0 530.67 461.31
  L 528.39 465.65
  A 2.29 2.24 -38.8 0 0 528.20 467.25
  Q 528.43 468.14 529.34 471.57
  C 531.70 480.42 526.53 490.31 518.36 494.60
  Q 516.51 495.57 511.32 496.74
  C 509.50 497.14 508.70 497.92 508.35 499.51
  A 0.55 0.55 0.0 0 0 508.85 500.18
  Q 516.85 500.69 522.54 496.09
  A 2.50 2.49 40.9 0 1 525.36 495.89
  Q 526.89 496.79 528.15 497.87
  Q 543.15 510.77 545.99 513.51
  Q 547.12 514.60 547.61 515.41
  A 2.41 2.41 0.0 0 1 547.06 518.53
  C 532.10 530.53 511.57 535.00 493.19 528.96
  A 0.20 0.20 0.0 0 0 492.94 529.21
  Z
  M 466.36 537.26
  L 469.05 530.52
  A 0.31 0.31 0.0 0 0 468.94 530.15
  Q 459.00 522.95 453.09 512.90
  Q 437.52 486.40 445.96 456.43
  C 446.93 452.99 448.62 449.69 449.71 447.00
  A 0.85 0.85 0.0 0 0 449.32 445.93
  L 444.60 443.46
  A 0.82 0.82 0.0 0 1 444.21 442.43
  L 446.50 436.70
  A 1.19 1.16 43.2 0 0 446.46 435.73
  Q 445.84 434.45 443.77 433.34
  A 0.56 0.56 0.0 0 0 442.95 433.84
  L 442.95 435.72
  A 1.49 1.47 -34.3 0 1 442.84 436.28
  Q 435.60 455.19 434.24 471.29
  C 432.50 491.81 439.80 513.24 453.38 528.92
  Q 456.92 533.02 465.71 537.50
  A 0.47 0.47 0.0 0 0 466.36 537.26
  Z
  M 491.11 485.76
  L 488.99 478.35
  A 0.36 0.36 0.0 0 0 488.66 478.09
  L 457.89 476.80
  A 1.96 1.96 0.0 0 1 456.03 475.08
  C 455.23 468.60 457.41 461.20 459.74 455.09
  A 2.06 2.06 0.0 0 0 459.00 452.67
  L 454.42 449.44
  A 1.16 1.16 0.0 0 0 452.68 449.93
  Q 440.67 477.84 453.50 505.29
  Q 459.61 518.35 471.02 526.81
  A 1.42 1.42 0.0 0 0 472.60 526.89
  Q 476.95 524.30 481.45 524.32
  A 0.41 0.41 0.0 0 0 481.67 523.57
  Q 468.19 514.82 461.08 500.70
  Q 457.80 494.20 457.03 488.17
  A 0.93 0.93 0.0 0 1 457.92 487.12
  L 490.96 485.96
  A 0.16 0.15 -9.7 0 0 491.11 485.76
  Z
  M 498.32 493.57
  A 0.62 0.62 0.0 0 0 497.51 493.92
  L 485.09 525.05
  A 0.62 0.62 0.0 0 0 485.43 525.86
  L 489.46 527.47
  A 0.62 0.62 0.0 0 0 490.24 527.18
  L 505.87 497.32
  A 0.62 0.62 0.0 0 0 505.55 496.46
  L 498.32 493.57
  Z
  M 491.39 538.63
  A 10.65 10.65 0.0 0 0 480.74 527.98
  A 10.65 10.65 0.0 0 0 470.09 538.63
  A 10.65 10.65 0.0 0 0 480.74 549.28
  A 10.65 10.65 0.0 0 0 491.39 538.63
  Z
  M 512.25 578.00
  C 544.64 578.00 584.40 576.85 620.24 577.56
  C 634.43 577.84 636.40 556.12 623.07 552.89
  A 3.22 3.14 51.5 0 0 622.28 552.79
  Q 600.96 552.77 551.26 552.53
  C 544.92 552.50 537.46 556.67 533.26 557.80
  Q 523.14 560.54 512.26 560.54
  Q 501.37 560.54 491.25 557.80
  C 487.05 556.67 479.59 552.50 473.25 552.53
  Q 423.55 552.76 402.23 552.78
  A 3.22 3.14 -51.5 0 0 401.44 552.88
  C 388.11 556.10 390.08 577.83 404.27 577.54
  C 440.11 576.84 479.87 577.99 512.25 578.00
  Z"
/>
<path fill="#0d0c08" d="
  M 645.1692 763.9057
  A 39.00 38.54 -109.8 0 1 694.6415 787.5450
  A 39.00 38.54 -109.8 0 1 671.5908 837.2943
  A 39.00 38.54 -109.8 0 1 622.1185 813.6550
  A 39.00 38.54 -109.8 0 1 645.1692 763.9057
  Z"
/>
</g>
<g>
<path fill="#4251bd" d="
  M 631.18 184.49
  A 11.38 11.38 0.0 0 1 619.80 195.87
  L 403.68 195.87
  A 11.38 11.38 0.0 0 1 392.30 184.49
  L 392.30 182.19
  A 11.38 11.38 0.0 0 1 403.68 170.81
  L 619.80 170.81
  A 11.38 11.38 0.0 0 1 631.18 182.19
  L 631.18 184.49
  Z"
/>
<path fill="#4251bd" d="
  M 423.38 201.94
  A 0.68 0.67 1.2 0 1 424.06 202.64
  Q 423.74 211.09 423.89 221.47
  Q 424.06 233.61 425.12 240.25
  Q 429.29 266.20 445.89 287.20
  Q 455.08 298.83 461.15 304.96
  Q 472.08 315.99 477.22 321.27
  C 493.26 337.74 501.72 361.78 486.12 381.64
  Q 478.43 391.44 465.70 400.94
  Q 455.92 408.24 447.41 416.81
  C 430.55 433.79 419.99 456.32 416.83 480.03
  Q 415.44 490.52 415.68 504.50
  Q 416.01 523.75 416.02 535.75
  Q 416.02 539.75 415.66 543.43
  A 0.66 0.66 0.0 0 1 415.00 544.02
  L 403.63 544.02
  A 0.67 0.67 0.0 0 1 402.96 543.35
  Q 403.26 512.90 403.03 495.23
  Q 402.68 468.62 414.63 442.68
  Q 422.46 425.69 433.55 413.29
  Q 445.00 400.49 462.11 387.36
  C 469.21 381.91 475.80 375.89 479.67 368.20
  C 487.41 352.79 474.53 336.13 463.85 326.36
  Q 455.13 318.39 448.78 311.92
  C 428.40 291.16 413.35 264.45 409.88 235.52
  C 408.67 225.44 409.35 211.83 409.14 202.46
  A 0.51 0.50 -1.1 0 1 409.65 201.94
  L 423.38 201.94
  Z"
/>
<path fill="#4251bd" d="
  M 600.71 201.95
  L 613.86 201.95
  A 0.99 0.99 0.0 0 1 614.85 202.92
  C 615.26 219.30 615.23 235.46 610.95 250.84
  Q 605.31 271.15 594.16 287.90
  Q 583.83 303.41 572.11 314.63
  C 558.98 327.19 548.74 334.72 543.70 348.94
  Q 539.05 362.10 547.22 373.02
  C 550.70 377.66 555.90 382.64 561.23 386.66
  Q 568.91 392.45 576.32 399.18
  C 603.02 423.43 619.48 456.23 619.89 492.26
  Q 620.14 513.32 620.11 543.27
  A 0.76 0.76 0.0 0 1 619.35 544.02
  L 608.21 544.02
  A 0.59 0.59 0.0 0 1 607.62 543.43
  Q 607.65 510.68 607.65 510.25
  C 607.63 499.88 607.67 489.30 606.20 479.54
  C 601.81 450.48 587.67 425.09 565.08 406.08
  Q 564.17 405.31 550.25 393.69
  Q 539.71 384.89 534.49 376.33
  C 526.13 362.60 528.37 347.32 536.42 334.16
  C 539.44 329.22 544.82 322.98 549.71 318.07
  C 561.45 306.30 571.67 295.97 580.57 283.76
  C 592.54 267.36 599.09 248.64 599.78 228.25
  Q 600.19 215.85 599.99 202.69
  A 0.73 0.72 89.6 0 1 600.71 201.95
  Z"
/>
<path fill="#4251bd" d="
  M 590.05 235.21
  A 0.86 0.85 3.3 0 1 590.90 236.16
  C 588.74 256.26 579.67 274.18 566.25 289.25
  Q 556.75 299.91 535.26 322.01
  C 526.78 330.74 520.52 340.98 518.14 352.37
  C 517.06 357.51 516.10 362.09 515.98 367.91
  Q 515.76 379.29 515.88 390.59
  A 1.19 1.18 89.8 0 1 514.70 391.79
  L 508.24 391.79
  A 1.24 1.24 0.0 0 1 507.00 390.53
  Q 507.24 378.82 506.88 367.77
  C 506.29 349.47 500.11 333.30 486.98 320.04
  Q 465.73 298.60 456.42 287.83
  C 443.49 272.86 434.92 255.39 433.00 235.71
  A 0.46 0.45 -2.8 0 1 433.46 235.21
  L 590.05 235.21
  Z"
/>
<path fill="#4251bd" d="
  M 554.37 412.10
  A 0.83 0.82 -13.9 0 1 553.55 413.45
  Q 547.69 411.99 543.69 414.68
  A 1.11 1.10 44.7 0 1 542.44 414.68
  Q 541.68 414.15 536.44 411.87
  C 525.92 407.27 515.97 406.19 504.70 406.76
  C 485.39 407.73 466.64 418.80 455.59 434.54
  A 2.15 2.15 0.0 0 1 452.84 435.21
  L 448.89 433.14
  A 1.68 1.67 -57.2 0 1 448.35 430.62
  Q 456.22 420.55 460.14 416.92
  C 485.76 393.16 524.05 390.95 552.69 410.82
  Q 554.10 411.79 554.37 412.10
  Z"
/>
<path fill="#4251bd" d="
  M 489.74 469.78
  A 0.74 0.74 0.0 0 1 488.62 470.14
  L 448.25 441.67
  A 2.36 2.36 0.0 0 1 447.59 438.51
  L 447.74 438.27
  A 2.30 2.30 0.0 0 1 450.84 437.47
  C 454.51 439.55 459.39 442.65 463.91 444.93
  Q 473.06 449.55 488.77 458.13
  A 2.92 2.91 -50.3 0 0 492.01 457.83
  L 499.08 452.04
  A 0.80 0.79 54.1 0 0 499.24 451.01
  Q 496.04 445.98 487.83 430.16
  C 487.26 429.06 486.13 427.63 485.39 426.77
  A 2.09 2.08 -35.1 0 0 482.76 426.32
  Q 472.87 432.06 466.47 441.54
  A 1.15 1.15 0.0 0 1 464.98 441.92
  L 458.92 438.74
  A 1.05 1.05 0.0 0 1 458.55 437.19
  C 468.33 423.69 484.25 413.49 500.99 411.21
  Q 520.42 408.56 538.63 417.22
  A 4.09 4.08 -72.4 0 1 540.90 421.62
  L 540.41 424.45
  A 2.58 2.58 0.0 0 1 536.62 426.26
  C 525.38 420.03 509.18 416.89 496.37 421.10
  A 1.60 1.60 0.0 0 0 495.46 423.38
  Q 503.19 437.74 508.15 446.59
  Q 508.74 447.64 511.06 450.93
  C 511.60 451.69 512.32 451.67 512.95 452.09
  A 0.70 0.70 0.0 0 1 513.20 452.96
  Q 512.19 455.23 511.07 455.38
  C 507.81 455.82 504.46 455.81 501.50 457.08
  Q 493.00 460.71 489.74 469.78
  Z"
/>
<path fill="#4251bd" d="
  M 493.60 549.97
  A 0.45 0.44 -38.7 0 0 493.68 549.28
  L 493.66 549.25
  A 0.64 0.64 0.0 0 0 492.89 549.14
  Q 491.10 550.13 489.90 552.01
  Q 489.77 552.21 489.46 552.35
  Q 489.10 552.50 488.88 552.41
  A 0.75 0.71 -50.9 0 1 488.78 551.13
  Q 492.55 548.44 494.56 543.69
  A 1.20 1.20 0.0 0 1 495.91 542.97
  C 518.87 547.47 542.27 541.13 558.82 524.54
  C 576.03 507.30 584.41 483.50 577.77 459.52
  C 574.98 449.44 570.49 440.57 563.86 432.78
  Q 559.02 427.10 558.53 426.31
  A 1.21 1.17 39.7 0 1 558.42 425.27
  Q 559.49 422.27 559.45 418.12
  A 1.79 1.75 -35.0 0 1 559.57 417.48
  L 559.86 416.76
  A 1.11 1.11 0.0 0 1 561.75 416.47
  L 563.51 418.62
  A 0.97 0.96 61.2 0 0 564.55 418.93
  Q 566.34 418.36 568.13 418.59
  A 0.67 0.66 -54.7 0 1 568.34 419.84
  Q 567.19 420.43 566.66 422.24
  A 0.85 0.85 0.0 0 0 566.89 423.10
  Q 568.67 424.81 570.66 423.37
  A 1.47 1.47 0.0 0 1 572.70 423.67
  L 572.78 423.77
  A 1.40 1.40 0.0 0 1 572.52 425.71
  Q 571.04 426.86 570.93 428.27
  A 1.72 1.49 -10.7 0 0 573.29 429.65
  Q 574.94 428.98 575.92 428.96
  A 1.04 1.04 0.0 0 1 576.65 430.76
  Q 574.85 432.46 574.50 433.75
  A 1.86 1.76 -3.2 0 0 576.95 435.82
  Q 578.53 435.26 579.27 435.13
  A 1.20 1.19 17.2 0 1 580.34 437.15
  L 578.60 438.89
  A 1.76 1.76 0.0 0 0 580.33 441.83
  L 582.42 441.24
  A 1.31 1.31 0.0 0 1 583.29 443.70
  Q 582.07 444.22 581.13 445.76
  A 1.53 1.53 0.0 0 0 582.49 448.09
  L 585.90 447.97
  A 1.14 1.14 0.0 0 1 586.52 450.09
  Q 584.08 451.55 583.93 451.68
  Q 583.05 452.41 583.23 453.25
  A 2.22 2.10 80.7 0 0 585.53 455.00
  Q 587.08 454.83 588.27 454.99
  A 1.16 1.16 0.0 0 1 588.43 457.25
  L 586.07 457.92
  A 1.34 1.33 86.2 0 0 585.13 459.00
  C 584.63 462.36 588.29 461.45 589.89 461.97
  A 1.16 1.15 -46.4 0 1 589.94 464.15
  Q 588.74 464.62 587.35 465.23
  A 1.84 1.46 -27.1 0 0 586.31 467.52
  C 587.03 468.66 589.12 469.00 590.76 469.30
  A 0.94 0.93 75.1 0 1 591.32 469.63
  Q 591.60 469.98 591.66 470.09
  A 1.04 1.00 -17.9 0 1 590.89 471.53
  Q 587.96 472.04 587.53 472.27
  Q 586.38 472.87 586.36 473.61
  A 2.44 2.38 1.0 0 0 588.79 476.07
  Q 590.44 476.08 591.28 476.75
  A 1.14 1.13 -26.7 0 1 590.61 478.77
  L 587.94 478.86
  A 1.06 1.06 0.0 0 0 587.18 479.23
  Q 585.76 480.93 586.98 482.47
  A 1.33 1.32 79.0 0 0 587.64 482.92
  L 590.68 483.85
  A 1.01 1.01 0.0 0 1 590.46 485.82
  Q 588.20 485.99 587.53 486.02
  A 2.57 2.25 86.7 0 0 585.40 488.76
  Q 585.45 489.37 586.29 489.73
  Q 588.62 490.72 589.16 491.01
  A 1.13 1.13 0.0 0 1 588.58 493.13
  L 585.79 493.01
  A 1.32 1.32 0.0 0 0 584.77 493.44
  Q 583.90 494.41 584.06 495.99
  A 0.86 0.85 7.7 0 0 584.59 496.68
  L 587.32 497.77
  A 1.18 1.18 0.0 0 1 586.72 500.04
  Q 584.48 499.74 583.34 500.06
  A 1.85 1.85 0.0 0 0 582.76 503.33
  Q 583.11 503.59 585.18 504.76
  A 0.97 0.93 27.9 0 1 585.59 506.01
  C 584.86 507.49 582.66 506.83 581.47 506.45
  A 1.76 1.76 0.0 0 0 579.52 509.18
  Q 580.22 510.12 581.45 510.89
  A 1.69 1.66 33.7 0 1 581.95 513.27
  Q 581.60 513.77 581.00 513.60
  Q 578.41 512.86 577.75 512.88
  Q 576.46 512.90 576.18 513.33
  A 2.36 2.25 34.6 0 0 576.83 516.45
  Q 578.30 517.52 578.63 517.90
  A 1.25 1.24 77.3 0 1 577.36 519.91
  C 575.56 519.42 573.74 518.62 572.65 519.48
  A 1.53 1.50 49.8 0 0 572.49 521.68
  Q 574.13 523.50 574.36 523.84
  A 1.30 1.30 0.0 0 1 572.67 525.71
  Q 571.46 525.06 570.11 524.54
  A 1.62 1.37 22.7 0 0 568.15 525.16
  Q 567.13 527.40 569.62 529.19
  A 1.34 1.34 0.0 0 1 569.78 531.22
  L 569.53 531.47
  A 1.41 1.40 40.1 0 1 567.74 531.62
  Q 565.44 530.01 564.54 529.84
  A 1.64 1.64 0.0 0 0 562.78 532.37
  L 564.45 534.72
  A 1.25 1.24 89.9 0 1 562.72 536.46
  L 559.87 534.46
  A 1.01 0.99 -35.6 0 0 558.97 534.32
  Q 557.54 534.78 557.39 536.19
  A 1.30 1.29 30.0 0 0 557.63 537.08
  Q 558.74 538.69 558.97 539.66
  A 1.19 1.19 0.0 0 1 557.24 540.97
  Q 556.06 540.31 554.52 538.80
  Q 553.87 538.17 553.08 538.55
  C 550.76 539.66 552.34 542.30 552.77 543.77
  A 1.04 1.04 0.0 0 1 551.17 544.91
  L 548.01 542.68
  A 1.57 1.57 0.0 0 0 545.59 544.36
  L 546.31 547.09
  A 0.22 0.18 56.8 0 1 546.30 547.20
  Q 546.22 547.41 546.20 547.44
  A 1.49 1.48 -49.5 0 1 543.96 547.62
  L 541.66 545.34
  A 1.00 0.96 -23.7 0 0 540.90 545.06
  C 538.45 545.23 539.34 548.56 539.45 550.07
  A 1.00 1.00 0.0 0 1 537.74 550.85
  L 535.02 548.14
  A 1.31 1.31 0.0 0 0 532.78 549.01
  L 532.63 552.75
  A 1.18 1.17 -59.0 0 1 530.44 553.30
  L 529.06 550.94
  A 1.59 1.54 -4.0 0 0 528.24 550.25
  Q 526.80 549.72 525.71 550.82
  A 0.88 0.86 66.6 0 0 525.46 551.48
  L 525.55 554.13
  A 1.35 1.35 0.0 0 1 523.14 555.01
  Q 522.40 554.06 521.94 552.50
  A 1.80 1.78 -14.9 0 0 519.81 551.28
  Q 518.35 551.64 518.44 552.90
  Q 518.58 554.93 518.50 555.24
  A 1.66 1.66 0.0 0 1 515.27 555.18
  L 514.87 553.31
  A 1.87 1.87 0.0 0 0 511.27 553.09
  C 510.96 553.99 511.31 556.19 509.82 556.74
  A 1.25 1.18 -16.4 0 1 508.19 555.91
  C 507.90 554.59 507.83 552.14 506.04 551.65
  A 1.44 1.43 -74.2 0 0 504.30 552.63
  Q 503.54 555.17 503.52 555.21
  A 1.45 1.45 0.0 0 1 500.72 555.08
  C 500.49 554.01 500.88 551.89 499.67 550.95
  A 1.55 1.53 -62.6 0 0 497.26 551.73
  Q 496.61 553.86 496.31 554.41
  A 1.34 1.34 0.0 0 1 494.12 554.67
  Q 493.26 553.69 493.15 551.75
  Q 493.08 550.30 493.60 549.97
  Z"
/>
<path fill="#4251bd" d="
  M 547.6505 417.9410
  A 4.62 4.38 -122.9 0 1 553.8375 419.4409
  A 4.62 4.38 -122.9 0 1 552.6695 425.6990
  A 4.62 4.38 -122.9 0 1 546.4825 424.1991
  A 4.62 4.38 -122.9 0 1 547.6505 417.9410
  Z
  M 553.01 421.96
  A 2.93 2.93 0.0 0 0 550.08 419.03
  A 2.93 2.93 0.0 0 0 547.15 421.96
  A 2.93 2.93 0.0 0 0 550.08 424.89
  A 2.93 2.93 0.0 0 0 553.01 421.96
  Z"
/>
<path fill="#4251bd" d="
  M 543.06 427.04
  C 544.81 428.73 543.56 431.22 542.51 433.53
  Q 540.92 437.05 532.79 452.03
  Q 528.92 459.18 523.95 465.48
  A 1.63 1.63 0.0 0 0 523.68 466.96
  C 524.25 468.79 525.45 470.94 525.83 473.17
  C 528.27 487.32 512.65 498.29 500.32 490.07
  C 495.48 486.84 493.12 482.36 492.84 476.35
  C 492.22 462.91 505.84 456.12 517.35 461.01
  A 1.12 1.12 0.0 0 0 518.85 460.34
  Q 519.50 458.47 520.51 457.02
  Q 523.87 452.20 537.62 432.71
  C 539.19 430.48 541.28 429.08 542.38 427.13
  A 0.44 0.43 37.3 0 1 543.06 427.04
  Z
  M 503.1831 469.5169
  A 9.20 8.78 -134.4 0 0 503.3469 482.2330
  A 9.20 8.78 -134.4 0 0 516.0569 482.6631
  A 9.20 8.78 -134.4 0 0 515.8931 469.9470
  A 9.20 8.78 -134.4 0 0 503.1831 469.5169
  Z"
/>
<path fill="#4251bd" d="
  M 492.94 529.21
  A 0.20 0.20 0.0 0 1 493.19 528.96
  C 511.57 535.00 532.10 530.53 547.06 518.53
  A 2.41 2.41 0.0 0 0 547.61 515.41
  Q 547.12 514.60 545.99 513.51
  Q 543.15 510.77 528.15 497.87
  Q 526.89 496.79 525.36 495.89
  A 2.50 2.49 40.9 0 0 522.54 496.09
  Q 516.85 500.69 508.85 500.18
  A 0.55 0.55 0.0 0 1 508.35 499.51
  C 508.70 497.92 509.50 497.14 511.32 496.74
  Q 516.51 495.57 518.36 494.60
  C 526.53 490.31 531.70 480.42 529.34 471.57
  Q 528.43 468.14 528.20 467.25
  A 2.29 2.24 -38.8 0 1 528.39 465.65
  L 530.67 461.31
  A 0.81 0.81 0.0 0 1 532.06 461.23
  Q 533.49 463.33 533.84 465.85
  C 534.85 473.01 534.59 479.56 531.48 486.29
  A 2.21 2.21 0.0 0 0 532.07 488.90
  L 554.14 507.34
  A 1.79 1.78 44.2 0 0 556.47 507.31
  Q 558.17 505.81 560.07 502.29
  Q 572.15 480.01 563.38 456.91
  Q 562.03 453.34 560.24 450.90
  A 1.06 1.05 49.2 0 0 558.65 450.78
  L 544.17 465.26
  A 1.75 1.75 0.0 0 1 541.69 465.26
  L 540.69 464.26
  A 2.13 2.12 41.4 0 1 540.51 461.45
  Q 547.81 452.09 553.17 440.03
  A 1.77 1.77 0.0 0 0 552.72 437.98
  C 550.64 436.13 546.33 432.94 547.18 430.63
  A 0.70 0.70 0.0 0 1 548.05 430.20
  Q 550.65 431.03 553.33 430.12
  A 3.02 3.02 0.0 0 1 556.41 430.83
  C 570.35 444.62 578.40 464.69 575.42 484.18
  Q 572.30 504.61 558.31 519.31
  C 553.75 524.10 548.95 528.49 542.47 531.95
  C 527.56 539.92 512.74 542.46 496.01 539.01
  A 0.49 0.48 87.9 0 1 495.64 538.66
  L 492.94 529.21
  Z"
/>
<path fill="#4251bd" d="
  M 466.36 537.26
  A 0.47 0.47 0.0 0 1 465.71 537.50
  Q 456.92 533.02 453.38 528.92
  C 439.80 513.24 432.50 491.81 434.24 471.29
  Q 435.60 455.19 442.84 436.28
  A 1.49 1.47 -34.3 0 0 442.95 435.72
  L 442.95 433.84
  A 0.56 0.56 0.0 0 1 443.77 433.34
  Q 445.84 434.45 446.46 435.73
  A 1.19 1.16 43.2 0 1 446.50 436.70
  L 444.21 442.43
  A 0.82 0.82 0.0 0 0 444.60 443.46
  L 449.32 445.93
  A 0.85 0.85 0.0 0 1 449.71 447.00
  C 448.62 449.69 446.93 452.99 445.96 456.43
  Q 437.52 486.40 453.09 512.90
  Q 459.00 522.95 468.94 530.15
  A 0.31 0.31 0.0 0 1 469.05 530.52
  L 466.36 537.26
  Z"
/>
<path fill="#4251bd" d="
  M 491.11 485.76
  A 0.16 0.15 -9.7 0 1 490.96 485.96
  L 457.92 487.12
  A 0.93 0.93 0.0 0 0 457.03 488.17
  Q 457.80 494.20 461.08 500.70
  Q 468.19 514.82 481.67 523.57
  A 0.41 0.41 0.0 0 1 481.45 524.32
  Q 476.95 524.30 472.60 526.89
  A 1.42 1.42 0.0 0 1 471.02 526.81
  Q 459.61 518.35 453.50 505.29
  Q 440.67 477.84 452.68 449.93
  A 1.16 1.16 0.0 0 1 454.42 449.44
  L 459.00 452.67
  A 2.06 2.06 0.0 0 1 459.74 455.09
  C 457.41 461.20 455.23 468.60 456.03 475.08
  A 1.96 1.96 0.0 0 0 457.89 476.80
  L 488.66 478.09
  A 0.36 0.36 0.0 0 1 488.99 478.35
  L 491.11 485.76
  Z"
/>
<path fill="#4251bd" d="
  M 498.32 493.57
  L 505.55 496.46
  A 0.62 0.62 0.0 0 1 505.87 497.32
  L 490.24 527.18
  A 0.62 0.62 0.0 0 1 489.46 527.47
  L 485.43 525.86
  A 0.62 0.62 0.0 0 1 485.09 525.05
  L 497.51 493.92
  A 0.62 0.62 0.0 0 1 498.32 493.57
  Z"
/>
<path fill="#4251bd" d="
  M 491.39 538.63
  A 10.65 10.65 0.0 0 1 480.74 549.28
  A 10.65 10.65 0.0 0 1 470.09 538.63
  A 10.65 10.65 0.0 0 1 480.74 527.98
  A 10.65 10.65 0.0 0 1 491.39 538.63
  Z
  M 475.9073 538.1318
  A 4.96 4.50 -176.9 0 0 480.6166 542.8934
  A 4.96 4.50 -176.9 0 0 485.8127 538.6682
  A 4.96 4.50 -176.9 0 0 481.1034 533.9066
  A 4.96 4.50 -176.9 0 0 475.9073 538.1318
  Z"
/>
<path fill="#4251bd" d="
  M 512.26 560.54
  Q 523.14 560.54 533.26 557.80
  C 537.46 556.67 544.92 552.50 551.26 552.53
  Q 600.96 552.77 622.28 552.79
  A 3.22 3.14 51.5 0 1 623.07 552.89
  C 636.40 556.12 634.43 577.84 620.24 577.56
  C 584.40 576.85 544.64 578.00 512.25 578.00
  C 479.87 577.99 440.11 576.84 404.27 577.54
  C 390.08 577.83 388.11 556.10 401.44 552.88
  A 3.22 3.14 -51.5 0 1 402.23 552.78
  Q 423.55 552.76 473.25 552.53
  C 479.59 552.50 487.05 556.67 491.25 557.80
  Q 501.37 560.54 512.26 560.54
  Z"
/>
</g>
<g>
<path fill="#0d0c08" d="
  M 553.01 421.96
  A 2.93 2.93 0.0 0 1 550.08 424.89
  A 2.93 2.93 0.0 0 1 547.15 421.96
  A 2.93 2.93 0.0 0 1 550.08 419.03
  A 2.93 2.93 0.0 0 1 553.01 421.96
  Z"
/>
<path fill="#0d0c08" d="
  M 503.1831 469.5169
  A 9.20 8.78 -134.4 0 1 515.8931 469.9470
  A 9.20 8.78 -134.4 0 1 516.0569 482.6631
  A 9.20 8.78 -134.4 0 1 503.3469 482.2330
  A 9.20 8.78 -134.4 0 1 503.1831 469.5169
  Z
  M 513.6461 472.8452
  A 4.36 4.36 0.0 0 0 507.8302 470.7971
  L 507.1628 471.1168
  A 4.36 4.36 0.0 0 0 505.1147 476.9327
  L 506.0739 478.9348
  A 4.36 4.36 0.0 0 0 511.8898 480.9829
  L 512.5572 480.6632
  A 4.36 4.36 0.0 0 0 514.6053 474.8473
  L 513.6461 472.8452
  Z"
/>
<path fill="#0d0c08" d="
  M 475.9073 538.1318
  A 4.96 4.50 -176.9 0 1 481.1034 533.9066
  A 4.96 4.50 -176.9 0 1 485.8127 538.6682
  A 4.96 4.50 -176.9 0 1 480.6166 542.8934
  A 4.96 4.50 -176.9 0 1 475.9073 538.1318
  Z
  M 479.7811 539.3641
  A 0.94 0.57 -177.2 0 0 480.6922 539.9793
  A 0.94 0.57 -177.2 0 0 481.6589 539.4559
  A 0.94 0.57 -177.2 0 0 480.7478 538.8407
  A 0.94 0.57 -177.2 0 0 479.7811 539.3641
  Z"
/>
</g>
<g>
<path fill="#4251bd" d="
  M 514.6053 474.8473
  A 4.36 4.36 0.0 0 1 512.5572 480.6632
  L 511.8898 480.9829
  A 4.36 4.36 0.0 0 1 506.0739 478.9348
  L 505.1147 476.9327
  A 4.36 4.36 0.0 0 1 507.1628 471.1168
  L 507.8302 470.7971
  A 4.36 4.36 0.0 0 1 513.6461 472.8452
  L 514.6053 474.8473
  Z"
/>
<path fill="#4251bd" d="
  M 479.7811 539.3641
  A 0.94 0.57 -177.2 0 1 480.7478 538.8407
  A 0.94 0.57 -177.2 0 1 481.6589 539.4559
  A 0.94 0.57 -177.2 0 1 480.6922 539.9793
  A 0.94 0.57 -177.2 0 1 479.7811 539.3641
  Z"
/>
</g>
</svg>
